<svg width="130" height="50" viewBox="0 0 130 50" fill="none" xmlns="http://www.w3.org/2000/svg">
<mask id="mask0_1062_9355" style="mask-type:alpha" maskUnits="userSpaceOnUse" x="0" y="0" width="130" height="50">
<rect width="130" height="50" fill="white"/>
</mask>
<g mask="url(#mask0_1062_9355)">
<path d="M16.8508 21.6332C17.4088 22.4854 17.4613 23.5013 17.1927 24.4501C15.9814 28.9873 12.3075 33.7514 14.9449 38.3888C16.3076 40.7638 20.4247 40.7638 22.1084 38.9469C23.3819 37.5892 20.8813 39.2888 20.4404 36.9408C19.531 32.0984 24.2622 26.9764 21.8507 21.344C28.1365 17.0803 35.1913 13.553 39.1068 6.47244C39.5758 5.63479 39.792 4.4884 39.3535 3.57725C38.8126 2.46146 37.6967 1.75066 36.3657 2.08161C35.3436 2.33445 34.4634 2.99722 33.8223 3.73486C29.0373 9.19394 24.5403 15.4587 17.8664 19.8275L16.8508 21.6332ZM16.5517 21.1961C13.2293 25.8651 11.2184 31.9566 6.37593 35.9883C5.25998 36.92 3.74845 37.0995 2.42718 36.5622C1.05976 35.9883 0.717866 34.2874 1.21858 33.0347C3.97684 26.0068 12.5151 23.533 14.6629 16.2741C14.6996 16.0996 14.4321 15.8895 14.0683 16.0056C10.183 17.2267 9.36737 22.6333 5.36135 23.8285C4.40284 24.1068 3.26603 23.9653 2.62378 23.0752C1.66544 21.7064 2.37094 19.9971 3.28193 18.9226C5.63008 16.1264 8.84734 14.8006 12.0255 13.1682C12.7265 12.8153 13.5578 12.3683 14.2526 12.0045C17.5883 10.2779 20.0218 7.62959 23.6541 7.58805C24.0228 7.67233 24.2904 8.26706 24.0474 8.67717C21.7372 12.3572 19.7274 15.5049 17.5957 19.2167C17.5259 19.3572 16.4882 21.0899 16.5517 21.1961ZM116.624 11.3402C118.214 11.4354 118.999 11.5819 119.735 13.4463C120.088 14.2937 119.94 14.7676 119.778 15.583C119.482 17.1838 115.914 20.8308 114.257 19.7894C113.924 19.561 114.602 18.7356 114.96 18.1312C115.22 17.6831 115.15 17.152 114.914 16.9359C113.288 15.478 113.455 14.2619 113.872 13.1398C114.219 12.2303 115.723 11.2987 116.624 11.3402Z" fill="#E2001A"/>
<path d="M94.2102 43.2102C95.8306 41.9941 96.9989 40.1565 97.789 38.8671C98.0003 38.5192 97.4692 38.9197 96.6461 39.1503C95.6474 39.4348 91.6084 42.1724 92.1248 43.7682C92.1469 43.7938 92.4888 44.0467 92.5522 44.0467C93.2139 43.9855 93.6767 43.6056 94.2102 43.2102ZM118.398 32.1284C120.446 30.6229 121.535 27.0224 120.794 24.4325C119.351 24.9795 116.802 27.1273 115.103 28.7695C113.07 30.739 114.786 29.1955 115.831 29.4861C116.793 29.7646 118.145 31.1333 117.487 31.8341C117.246 32.0919 117.961 32.4497 118.398 32.1284ZM107.553 19.5169C108.532 19.4642 108.849 21.2115 107.989 21.5645C105.105 22.7866 99.8878 24.2019 99.7242 28.6705C99.6924 29.0026 100.409 29.8403 101.44 29.397C104.557 28.0296 105.357 24.3068 108.046 22.1809C109.567 20.9966 111.116 22.7121 110.542 24.2603C109.81 26.2237 108.741 27.966 107.604 29.7451C107.058 30.6084 108.193 30.087 108.452 29.9294C114.354 26.3128 118.491 20.7597 125.009 18.3055C126.172 17.8696 127.53 18.0004 128.557 19.0857C128.972 19.5375 129.15 20.1859 128.851 20.8586C128.381 21.8963 127.135 21.6852 126.087 21.8756C125.707 21.9378 125.308 22.4177 125.186 22.823C124.476 25.1968 125.333 27.7181 124.598 30.0612C123.866 32.3567 122.619 34.2723 120.518 35.7558C118.602 37.1196 116.254 37.3991 114.032 36.7046C113.338 36.4835 112.789 36.0462 112.31 35.4773C109.379 31.9818 114.102 29.8767 111.431 31.4139C109.241 32.6714 105.171 34.8093 103.782 36.5505C101.375 39.6201 99.4814 42.7471 96.6536 45.1585C94.6123 46.9374 92.4804 48.4539 89.5731 47.7848C88.4205 47.527 87.7477 46.4587 87.7246 45.5845C87.5085 38.4674 97.0956 36.8044 101.006 33.4661C100.612 33.277 98.7169 34.7029 97.0847 34.6248C96.2741 34.593 95.0176 34.4503 94.3741 33.4391C93.279 31.6823 93.5109 29.8396 94.3741 28.2501C96.9196 23.5338 101.926 19.8051 107.553 19.5169ZM31.134 26.5656C31.8349 25.6023 32.5088 24.4863 32.5503 23.4229C32.5662 22.8013 32.5282 22.6963 31.9033 22.7391C30.935 22.822 27.9642 26.2861 28.2867 28.3238C28.3441 28.6609 29.5028 28.192 29.6189 28.1127C30.1914 27.6694 30.7957 27.0442 31.134 26.5656ZM46.9678 18.9064C48.5161 16.827 49.7577 15.1737 50.3745 13.6781C50.4158 13.5682 50.1789 13.0993 49.7736 13.1199C47.7846 13.1895 44.9408 16.9588 43.4196 19.7904C42.8835 20.7805 41.919 23.3068 42.0728 23.8856C42.5515 24.2432 45.6357 20.7 46.9678 18.9064ZM60.0604 18.352C62.1667 15.5047 64.8089 11.4559 63.6466 11.319C62.3193 11.2824 57.4172 16.5827 55.6759 21.8794C55.5598 22.1797 55.4451 22.8904 55.5599 22.8367C56.4013 22.5314 58.7759 20.0943 60.0604 18.352ZM33.0192 19.3165C34.9814 18.8319 36.4672 20.4531 36.3146 22.165C35.9554 26.1553 33.93 28.5447 30.1608 31.3604C29.8018 31.6496 30.223 31.9183 30.4818 31.9245C33.0826 31.966 36.4134 29.071 36.6821 28.2761C37.1302 27.0234 37.5196 24.9122 37.8983 23.855C38.2573 22.8599 38.7981 21.7218 39.2303 20.8014C42.2156 14.711 48.8431 5.60366 54.2704 7.99797C55.4915 8.53526 55.5976 9.54129 55.1643 11.2043C53.1325 18.8905 46.7102 25.1395 42.2255 28.5083C39.2927 30.7292 46.019 30.4338 47.8263 28.982C48.3097 28.5924 49.3684 28.1028 49.51 27.3494C50.8629 20.1273 58.5966 6.20916 67.6673 5.12363C68.588 5.01371 69.4464 5.46673 69.5891 6.90868C69.9409 10.662 67.9251 12.778 66.1546 15.7888C63.0069 21.1062 58.9482 24.3125 55.0325 28.3554C54.3159 29.1074 54.5001 31.0231 56.5843 31.2552C57.4745 31.3505 58.3217 30.8559 59.0166 30.7973C58.9421 34.1453 55.6417 36.873 52.4817 36.1085C50.9971 35.7507 49.5819 34.3821 49.6185 33.1452C49.6821 31.271 49.3243 32.2978 49.0971 32.503C46.0021 35.1831 39.7908 37.6043 37.1266 33.0719C35.0779 33.5506 32.4771 36.1244 29.6201 35.857C27.7251 35.6714 25.846 35.2134 24.8301 33.8509C24.4613 33.3502 23.1548 34.4504 22.2819 33.9877C21.0901 33.3502 21.4393 32.6825 21.9655 32.0975C22.5443 31.4284 24.2244 31.398 24.3246 30.1659C24.7848 25.2212 28.106 20.5266 33.0192 19.3165Z" fill="#E2001A"/>
<path d="M76.2214 43.3533C77.3373 42.5683 80.7587 38.9676 79.8491 39.0678C78.8588 39.163 75.3473 41.1838 74.2532 42.7734C73.8895 43.2948 74.0996 43.7844 74.6367 43.8736C75.1947 43.9114 75.7685 43.6781 76.2214 43.3533ZM90.1884 21.3633C88.5777 21.6209 83.9124 25.0067 82.3325 27.6063C81.9858 28.18 81.7745 28.9115 82.0506 29.5331C82.3388 30.1546 82.9821 30.3914 83.6696 30.1387C87.0188 28.9274 87.6132 25.0434 89.6463 22.532C89.9296 21.7846 93.1898 19.1888 94.2471 21.0106C95.495 23.1852 91.2946 28.4539 89.1615 32.0228C88.9882 32.3072 88.9625 32.7187 89.3788 32.5503C90.4412 32.1498 91.5475 30.9384 92.1273 30.4965C93.6535 31.2549 89.8952 36.6563 85.5095 37.7979C84.2666 38.1144 80.8929 47.8371 71.423 47.6161C69.4646 47.5745 69.1019 44.9677 70.0226 43.262C72.4706 38.7296 78.9725 36.256 82.1092 35.3086C82.1617 35.2976 83.2458 34.3084 83.4193 33.7921C83.572 33.2926 83.3204 33.4917 83.1604 33.5552C81.003 34.5294 79.009 34.9763 77.3826 33.7969C74.0701 31.4233 77.3192 26.4647 80.0602 24.4332C78.3815 24.6015 77.0541 24.5381 75.8978 23.8374C75.5658 23.6225 75.07 24.7166 74.9699 25.5382C74.5009 29.8384 71.3801 33.4454 67.9112 35.5346C66.3949 36.4502 64.7587 36.6028 63.0785 36.0449C61.3777 35.4819 60.3043 33.8714 60.147 32.2708C59.5511 26.2903 64.3789 20.9058 70.2641 19.9534C71.2544 19.7898 71.9858 20.1743 72.4437 21.2366L72.2128 21.4638C69.4644 22.3746 67.4498 25.1585 66.5535 27.2012C66.1164 28.1913 65.3058 31.0289 67.4693 30.5966C70.8331 29.9336 72.5181 25.1852 71.9382 22.869L71.9858 22.1265C72.8844 21.5161 73.8601 20.6895 74.0443 20.6895H74.1018C75.3129 20.6053 77.7194 21.6797 79.4448 21.8262C83.7842 22.217 85.9797 19.2365 89.4692 19.9996C89.7634 20.0678 90.0014 20.3 90.2371 20.4952C90.5375 20.7053 90.6071 21.368 90.4789 21.3316C90.452 21.3316 90.2665 21.3537 90.1884 21.3633Z" fill="#E2001A"/>
</g>
</svg>
