<svg width="130" height="50" viewBox="0 0 130 50" fill="none" xmlns="http://www.w3.org/2000/svg">
<mask id="mask0_1062_9359" style="mask-type:alpha" maskUnits="userSpaceOnUse" x="0" y="0" width="130" height="50">
<rect width="130" height="50" fill="white"/>
</mask>
<g mask="url(#mask0_1062_9359)">
<path d="M52.4402 12.9995C54.2975 12.9995 55.8126 14.5065 55.8126 16.4045C55.8126 18.2698 54.2975 19.7768 52.4402 19.7768C50.583 19.7768 49.0679 18.2698 49.0679 16.4045C49.0679 14.5065 50.583 12.9995 52.4402 12.9995Z" fill="#EF3E42"/>
<path d="M27.8088 40.1153C27.8088 40.1153 25.3244 43.0641 21.4225 43.0641C20.4206 43.0641 16.8935 42.5753 16.8935 40.71C16.8935 39.0075 19.3861 38.0789 21.5854 38.0789C23.5241 38.0789 26.3263 39.0401 27.8088 40.1153L31.3522 41.5734C32.8918 42.4857 41.339 47.0148 47.1306 47.0148C56.759 47.0148 61.8419 40.6855 63.3326 38.2825C64.1146 37.028 63.1293 37.0606 62.4203 37.4679C59.0886 39.3822 53.8428 40.9951 49.5011 40.9951C46.5441 40.9951 43.0659 40.6204 35.5147 37.2073C39.5388 32.0102 41.7137 24.8745 43.9049 17.8528L44.7928 15.2624C44.7928 15.2624 47.0329 7.59723 50.0143 4.8358C50.8859 3.97235 51.9041 4.28189 51.7412 5.49561C51.1305 10.1306 48.1896 12.8187 44.7928 15.2624L43.9049 17.8528C46.8048 15.8734 54.2582 11.1162 54.2582 5.98437C54.2582 3.79314 52.8164 2.92969 51.2687 2.92969C45.5667 2.92969 39.1233 12.3707 36.8669 18.5126C36.8669 18.5126 36.2153 18.6514 35.3518 18.6514C31.727 18.6514 28.0858 17.5517 28.0858 14.0816C28.0858 10.6441 31.0264 9.89468 32.9407 9.89468C34.7165 9.89468 35.8894 10.4245 36.8425 10.9048C37.8852 11.3772 38.1621 10.7418 37.6245 10.2287C36.4108 9.10453 34.5047 7.82564 31.6373 7.82564C27.7355 7.82564 24.3387 10.4242 24.3387 13.8698C24.3387 16.3869 26.1389 20.4924 33.4376 20.4924C34.1381 20.4924 35.2541 20.4109 36.142 20.2395C33.8286 25.3877 32.3134 31.3993 30.5621 35.7247C29.161 35.236 26.587 34.6087 24.2735 34.6087C19.2965 34.6087 14.8 37.5331 14.8 40.6448C14.8 43.7891 18.6937 45.239 21.9601 45.239C25.2266 45.239 27.8333 44.0905 31.3522 41.5734L27.8088 40.1153Z" fill="#EF3E42"/>
<path d="M74.9731 33.1808L78.3291 24.4729C78.7612 22.9007 80.4715 22.8844 80.0724 24.4859C79.1763 28.1026 77.4413 31.6053 76.6919 33.3974C76.0076 35.0266 74.1911 35.1895 74.9731 33.1772L69.4014 30.7253C67.3894 35.9549 70.8676 37.2419 74.5821 37.2419C82.0681 37.2419 85.6115 29.3568 85.6115 25.2594C85.6115 21.4961 82.7197 21.0562 81.5305 21.0562C80.7403 21.0562 80.3249 21.1455 79.5429 21.3495L83.4284 11.4686C83.7705 10.597 83.3059 10.4585 82.6057 10.4585H78.0848C77.3842 10.4585 77.1643 10.8495 76.9281 11.4686L69.4014 30.7253L74.9731 33.1772V33.1808Z" fill="#EF3E42"/>
<path d="M53.8182 30.7025C53.3621 31.9162 52.2379 34.4169 49.9979 34.4169C48.6864 34.4169 49.0855 33.5209 49.3625 32.8122C49.6473 32.0954 53.6146 21.7909 53.6146 21.7909C53.859 21.2044 53.5885 21.1148 53.0444 21.1148H48.0673C47.3831 21.1148 47.269 21.3918 47.0817 21.8724L43.3346 31.5904C42.3897 33.8875 41.6403 34.0341 40.7931 34.5228C40.1662 34.8728 40.0437 34.9627 40.0437 35.2071V36.2661C40.0437 36.6082 40.3291 36.7222 40.5813 36.6004C41.2493 36.3149 42.2919 35.7206 42.9518 35.2807C43.8559 36.5026 44.6624 37.2439 46.8292 37.2439C49.0855 37.2439 51.7166 36.3478 53.3784 35.0527L53.5087 34.9875C54.2989 36.7225 56.5389 37.2439 58.9094 37.2439C66.3953 37.2439 69.9795 29.3669 69.9795 25.2614C69.9795 21.5062 67.047 21.0581 65.8577 21.0581C65.1327 21.0581 64.7336 21.1559 63.9516 21.3514L67.7638 11.4787C68.0975 10.5989 67.6335 10.4604 66.9248 10.4604H62.4935C61.793 10.4604 61.573 10.8514 61.3368 11.4787L53.8182 30.7025L59.3737 33.1791L62.7379 24.4794C63.1615 22.9072 64.8802 22.891 64.4811 24.4924C63.5769 28.1092 61.85 31.6119 61.1006 33.4039C60.4163 35.0331 58.5102 35.196 59.3737 33.1759L53.8182 30.6995V30.7025Z" fill="#EF3E42"/>
<path d="M106.083 33.6215C105.146 33.6215 104.258 33.2467 104.054 32.8069C105.92 33.0591 108.021 31.6339 108.021 29.2146C108.021 27.5121 106.571 26.5753 106.571 26.5753C107.223 26.0377 108.958 24.2701 109.3 23.8302C111.076 28.0008 109.936 33.6215 106.083 33.6215L107.972 37.2382C113.137 37.2382 115.1 33.5726 115.1 30.7053C115.1 28.3104 114.269 26.1762 112.151 22.1929C113.674 20.9792 115.059 19.8387 115.059 17.3869C115.059 16.0835 114.432 14.5195 112.363 14.5195C109.911 14.5195 108.274 17.4602 108.233 19.6107C108.214 20.0994 108.298 21.0688 108.436 21.6797C107.997 22.3314 104.07 26.0621 100.999 28.3593L103.508 22.0788C103.801 21.3294 103.469 21.1176 102.832 21.1176H98.0424C97.4559 21.1176 97.2848 21.3457 97.0893 21.8426L92.8616 32.8069C92.1285 34.656 90.2387 35.2343 90.9229 33.483C91.2814 32.5544 95.4194 22.0544 95.4194 22.0544C95.7127 21.2968 95.3458 21.1176 94.7433 21.1176H89.9699C89.4811 21.1176 89.2449 21.248 89.0168 21.8426L84.7159 32.9779C83.2903 36.7983 86.9559 37.2463 88.1941 37.2463C89.4323 37.2463 90.0676 37.0671 91.3872 36.3829C91.3872 36.3829 88.3733 44.1947 88.1778 44.7242C87.9745 45.2455 88.1517 45.5388 88.7317 45.5388H93.6925C94.206 45.5388 94.4989 45.254 94.6374 44.8301C94.784 44.4143 99.3294 32.6928 99.3294 32.6928L100.372 31.8701C100.535 32.1712 102.384 37.2382 107.972 37.2382L106.083 33.6215Z" fill="#EF3E42"/>
<path d="M104.053 17.2007C102.7 16.7367 101.641 15.4819 101.641 13.9424C101.641 12.0688 103.23 10.5537 105.103 10.5537C106.977 10.5537 108.468 11.9548 108.468 13.8202C108.468 16.7608 105.951 18.7973 104.517 19.1883C103.914 19.3512 103.776 19.1817 104.004 18.7158C104.232 18.2596 104.297 18.0804 104.411 17.8198C104.623 17.3226 104.037 17.1929 104.037 17.1929" fill="#EF3E42"/>
</g>
</svg>
