<svg width="130" height="50" viewBox="0 0 130 50" fill="none" xmlns="http://www.w3.org/2000/svg">
<mask id="mask0_1062_9356" style="mask-type:alpha" maskUnits="userSpaceOnUse" x="0" y="0" width="130" height="50">
<rect width="130" height="50" fill="white"/>
</mask>
<g mask="url(#mask0_1062_9356)">
<path d="M53.943 3.67267C62.1096 4.03631 70.2004 5.38478 78.0487 7.65748C89.8365 11.1271 102.397 11.8393 108.594 9.32413C109.882 8.79383 111.245 9.91503 110.821 11.1271C107.776 19.9452 99.9121 37.8996 81.2457 43.9601L80.6699 44.142L80.6093 44.1571C76.2609 45.5056 71.7306 46.1268 67.1852 46.0207C50.0188 45.5662 40.125 38.6269 34.6099 32.0512C33.9887 31.2936 32.9129 31.1118 32.0796 31.5966C28.9888 33.4905 26.0645 35.6269 23.3373 38.0057C22.8676 38.3996 22.2616 38.5814 21.6555 38.4602C21.0495 38.3541 20.5343 37.9753 20.2313 37.445C19.9737 36.9451 19.9283 36.3693 20.1101 35.839C20.2767 35.3087 20.6555 34.8693 21.1555 34.6117C27.4282 31.2936 31.8675 29.2179 34.8826 27.9603C34.9432 27.93 35.0038 27.9148 35.0644 27.8845C35.322 27.7785 35.5644 27.6724 35.7917 27.5815C37.4129 26.93 41.1704 25.3391 42.3674 25.127H42.3825C42.5795 25.0967 42.7613 24.9755 42.8522 24.7937L42.8825 24.7028L43.231 22.3391H43.2462L43.2765 22.1573L43.9583 17.2483L47.4582 23.0816C47.5188 23.1876 47.6249 23.2634 47.7309 23.2785L47.8219 23.2937H49.4279C49.6097 23.2937 49.7764 23.1725 49.837 22.9907L49.8521 22.9149L51.1097 13.8241C51.1248 13.7029 51.0794 13.5665 51.0036 13.4756C50.943 13.3998 50.8673 13.3544 50.7764 13.3392L50.6855 13.3241H49.0946C48.8976 13.3241 48.7461 13.4453 48.6855 13.6271L48.6703 13.7029L47.9279 19.1422L44.5037 13.5362C44.4431 13.4301 44.337 13.3544 44.2158 13.3392L44.1249 13.3241H42.428C42.2462 13.3241 42.0795 13.4453 42.0189 13.612L42.0037 13.6877L40.8219 22.2331V22.2785H40.8068L40.5189 24.4452C37.7159 24.2331 34.8978 24.5512 32.216 25.3997C31.8524 25.4906 31.4584 25.4149 31.1402 25.1876C30.8221 24.9755 30.6099 24.627 30.5645 24.2482C28.9736 16.7634 33.0948 8.88474 41.4583 5.64235C41.5492 5.61205 41.6401 5.56659 41.7462 5.53629C45.6552 4.09691 49.7915 3.46056 53.943 3.67267ZM80.5336 25.5209H78.3063C78.2003 25.5209 78.0942 25.5815 78.0336 25.6573C77.9881 25.7179 77.973 25.8088 77.973 25.8846L77.9881 25.9603L80.9426 34.3845C80.9578 34.4451 80.973 34.5208 80.9578 34.5814L80.9426 34.642L78.3518 40.0359C78.3063 40.142 78.3063 40.2632 78.3669 40.3693C78.4124 40.445 78.4881 40.5056 78.579 40.5208H78.6396H80.973C81.079 40.5208 81.1699 40.4753 81.2305 40.3996L81.276 40.339L88.1244 26.0058C88.1698 25.8997 88.1698 25.7785 88.1092 25.6724C88.0638 25.5967 87.988 25.5361 87.8971 25.5209H87.8365H85.5335C85.4274 25.5209 85.3365 25.5664 85.2759 25.6573L85.2305 25.7179L83.0487 30.5663C82.9881 30.6875 82.8669 30.7633 82.7305 30.7633C82.6244 30.7633 82.5184 30.7027 82.4729 30.6118L82.4426 30.536L80.8517 25.7634C80.7911 25.6118 80.6699 25.5209 80.5336 25.5209ZM32.5948 34.3693C33.1251 34.3542 33.6402 34.5663 34.019 34.9299C34.3978 35.3087 34.6099 35.8087 34.6099 36.3541C34.625 37.1875 34.1554 37.945 33.3978 38.2784C32.6402 38.6117 31.7614 38.445 31.1857 37.8693C30.5948 37.2935 30.413 36.3996 30.7312 35.642C31.0342 34.8693 31.7614 34.3693 32.5948 34.3693ZM51.8067 25.3846H49.9582C49.8067 25.3846 49.6703 25.4452 49.5794 25.5664C49.5036 25.6573 49.4733 25.7785 49.4733 25.8846L49.4885 25.9755L51.837 37.7481C51.8824 37.945 52.0339 38.0966 52.2309 38.142H52.3218H52.9733C53.1248 38.142 53.2612 38.0814 53.3521 37.9602L53.3975 37.8844L57.0339 31.1269C57.049 31.0966 57.0793 31.0815 57.0945 31.0966C57.1096 31.0966 57.1248 31.1118 57.1399 31.1269L57.1551 31.1572L58.8672 37.7784C58.9126 37.9753 59.0641 38.1117 59.2611 38.142H59.3369H59.9884C60.1399 38.142 60.2914 38.0663 60.3823 37.945L60.4278 37.8693L66.0943 26.0967C66.1701 25.9452 66.155 25.7634 66.064 25.6118C65.9883 25.4906 65.8671 25.4149 65.7307 25.3846H65.6398H63.6701C63.5035 25.3846 63.352 25.4603 63.2611 25.5967L63.2156 25.6724L60.3671 31.9603C60.352 31.9754 60.3368 31.9906 60.3065 31.9906C60.2914 31.9906 60.2762 31.9754 60.2611 31.9603L60.2459 31.93L58.655 25.7482C58.6096 25.5512 58.4429 25.4149 58.2611 25.3846H58.1854H57.3217C57.1702 25.3846 57.0339 25.4452 56.943 25.5664L56.8975 25.6421L53.5036 31.9603C53.4884 31.9906 53.4581 32.0057 53.4278 31.9906C53.4127 31.9906 53.3975 31.9754 53.3824 31.9603L53.3672 31.9451L52.246 25.7937C52.246 25.5512 52.0339 25.3846 51.8067 25.3846ZM31.8221 34.9754C31.3372 35.2633 31.0645 35.7935 31.0796 36.3541C31.0645 36.7784 31.216 37.1723 31.519 37.4754C31.8069 37.7784 32.2008 37.945 32.6251 37.945C33.0342 37.945 33.4281 37.7784 33.7008 37.4754C33.9887 37.1723 34.1402 36.7784 34.1251 36.3693C34.1554 35.8087 33.8675 35.2784 33.3978 34.9905C32.9281 34.7027 32.2917 34.7027 31.8221 34.9754ZM33.2614 35.4905C33.3826 35.5966 33.4584 35.7632 33.4584 35.9299C33.4432 36.1572 33.2766 36.339 33.0493 36.3845V36.4148C33.2463 36.4905 33.3826 36.6875 33.4129 36.8996C33.4281 37.0663 33.4887 37.2481 33.5645 37.3996H33.0796C33.0039 37.2481 32.9584 37.0814 32.9281 36.9148C32.8978 36.7026 32.7766 36.5966 32.519 36.5966H32.3069V37.3996H31.8524V35.4148C32.0948 35.3693 32.3523 35.3542 32.6099 35.3542C32.822 35.3239 33.0493 35.3845 33.2614 35.4905ZM32.5493 35.6723C32.4584 35.6723 32.3827 35.6723 32.2917 35.7026V36.2784H32.5039C32.7614 36.2784 32.9584 36.1875 32.9584 35.9905C32.9584 35.7936 32.8372 35.6723 32.5493 35.6723ZM73.3215 25.3694C71.0185 25.3694 69.261 25.93 68.0337 27.0512C66.8065 28.1573 66.1247 29.7482 66.1853 31.4148C66.1398 32.5209 66.4883 33.6118 67.1701 34.4905C67.761 35.2633 68.6701 35.7026 69.6398 35.6875C70.5943 35.6572 71.5185 35.339 72.2761 34.7481L72.4731 34.5814L72.4276 34.9148C72.4125 35.0663 72.4428 35.2178 72.5488 35.3239C72.6246 35.4148 72.7306 35.4754 72.8518 35.4905L72.9427 35.5057H74.8215C75.0488 35.5057 75.2458 35.3542 75.3064 35.1572L75.3215 35.0663L76.5639 26.2027C76.6094 25.93 76.4276 25.6724 76.1548 25.6118C75.2154 25.4452 74.2609 25.3694 73.3215 25.3694ZM72.5488 27.8239L72.7609 27.8391C72.8973 27.8391 73.0488 27.8391 73.1852 27.8542L73.3973 27.8694L72.7609 32.3996C72.7458 32.536 72.67 32.6572 72.5791 32.733C72.0337 33.1875 71.3519 33.4602 70.6397 33.4754C70.2307 33.4905 69.8367 33.3087 69.5943 32.9754C69.3216 32.5663 69.1852 32.0663 69.2155 31.5663C69.1852 30.5966 69.5034 29.6573 70.1095 28.9148C70.6852 28.2785 71.4882 27.8845 72.3367 27.8391L72.5488 27.8239ZM83.579 16.5816C82.8972 17.3544 82.5335 18.3695 82.5638 19.3998C82.5184 20.4301 82.8972 21.4301 83.6093 22.1573C84.3669 22.8694 85.382 23.2331 86.4123 23.1876C87.2304 23.1725 88.0335 23.0058 88.791 22.7331C88.9426 22.6725 89.0638 22.5664 89.1244 22.4149L89.1547 22.324L89.4274 21.021C89.4425 20.9604 89.4122 20.8846 89.3668 20.8543C89.3213 20.8089 89.2456 20.7937 89.185 20.824C88.382 21.1876 87.5183 21.4149 86.6395 21.4907C86.1244 21.5361 85.6244 21.324 85.2759 20.9452C84.9274 20.5664 84.7759 20.0361 84.8668 19.5361C84.8668 19.521 84.8668 19.5058 84.882 19.5058L84.8971 19.4907H84.9123H89.3971C89.7001 19.4907 89.9577 19.2634 89.988 18.9604C90.0183 18.7786 90.0183 18.5816 90.0183 18.3998C90.0486 17.521 89.7304 16.6574 89.1244 16.021C88.5941 15.5059 87.9123 15.1877 87.1698 15.1423C85.8214 15.0059 84.4729 15.5362 83.579 16.5816ZM64.7156 13.5968H62.958C62.852 13.5968 62.7459 13.6726 62.7005 13.7635L62.6853 13.8241L62.4883 15.0059C62.4732 15.1119 62.3823 15.2029 62.2914 15.2332H62.2308H61.1247C61.0187 15.2332 60.9126 15.3089 60.8671 15.3998L60.852 15.4604L60.655 16.6271C60.6399 16.7028 60.655 16.7937 60.7156 16.8544C60.7611 16.8998 60.8065 16.9301 60.8671 16.9453H60.9277H61.8368C61.9126 16.9453 62.0035 16.9756 62.049 17.0362C62.0944 17.0816 62.1096 17.1422 62.1096 17.2028V17.2634L61.6247 19.9149C61.5793 20.1422 61.549 20.3695 61.5641 20.5967C61.5338 21.2786 61.7611 21.9452 62.2005 22.4604C62.655 22.9452 63.3065 23.2179 63.958 23.1876C64.5792 23.1725 65.2004 23.0361 65.7762 22.7634C65.8519 22.7331 65.9125 22.6573 65.9277 22.5664L65.9428 22.5058V21.0816C65.9428 20.9907 65.8974 20.8998 65.8216 20.8543C65.7459 20.8089 65.6398 20.7937 65.5641 20.8392C65.2762 20.9907 64.958 21.0816 64.6247 21.1119C64.1701 21.1119 63.9429 20.7634 63.9429 20.0816C63.9429 19.9452 63.958 19.8089 63.9732 19.6725L64.0035 19.4755L64.4126 17.1725C64.4277 17.0665 64.5186 16.9756 64.6095 16.9453H64.6701H67.8974L67.4428 20.1725C67.4125 20.3695 67.4125 20.5816 67.4125 20.7786C67.3822 21.4149 67.5792 22.0361 68.0034 22.521C68.4428 22.9604 69.0489 23.1876 69.6701 23.1573C70.5185 23.1422 71.3367 22.8391 71.9882 22.3088L72.17 22.1573L72.0791 22.7028C72.064 22.7785 72.0943 22.8694 72.1397 22.9301C72.1852 22.9755 72.2306 23.0058 72.2912 23.021H72.3518H74.0791C74.1852 23.021 74.2912 22.9452 74.3367 22.8391L74.3518 22.7785L75.3518 15.5362C75.367 15.4604 75.3367 15.3695 75.2912 15.3089C75.2458 15.2635 75.2003 15.2332 75.1397 15.218H75.0791H73.3367C73.2155 15.218 73.1246 15.2938 73.0791 15.3998L73.064 15.4604L72.4125 20.218C72.3973 20.2786 72.3822 20.3392 72.3367 20.3846C71.6549 21.0967 71.0337 21.4604 70.4579 21.4604C69.9882 21.4604 69.761 21.0664 69.761 20.2937C69.761 20.0816 69.7761 19.8846 69.7913 19.6877L69.8367 19.3846L70.367 15.5513C70.3822 15.4756 70.3519 15.3847 70.3064 15.3241C70.261 15.2786 70.2155 15.2483 70.1549 15.2332H70.0943H65.0641C64.9883 15.2332 64.9125 15.2029 64.8519 15.1271C64.8065 15.0816 64.7913 15.021 64.7913 14.9604V14.8998L64.9883 13.915C65.0035 13.8392 64.9883 13.7483 64.9277 13.6877C64.8671 13.6271 64.7913 13.5968 64.7156 13.5968ZM57.2308 15.1119C55.443 15.1119 54.049 15.5513 53.0945 16.4301C52.14 17.2937 51.6097 18.5513 51.64 19.8392C51.6097 20.7028 51.8824 21.5664 52.4127 22.2482C52.8824 22.8543 53.5945 23.1876 54.3521 23.1876C55.0945 23.1725 55.8218 22.9149 56.4127 22.4604L56.5793 22.324L56.5187 22.7482C56.5036 22.824 56.5339 22.8997 56.5793 22.9604C56.6096 23.0058 56.6702 23.0361 56.7157 23.0513H56.7763H58.5338C58.6399 23.0513 58.746 22.9907 58.7763 22.8846L58.7914 22.824L59.7914 15.6271C59.8065 15.4907 59.7156 15.3544 59.5793 15.3241C58.8066 15.1877 58.0187 15.1119 57.2308 15.1119ZM93.2152 15.8241C92.6849 16.2786 92.3819 16.9453 92.4122 17.6422C92.4274 17.9604 92.5183 18.2634 92.7001 18.521C93.0637 18.9907 93.5031 19.3998 93.9879 19.7483C94.6546 20.2634 94.9879 20.627 94.9879 20.8695C94.9879 21.1573 94.7455 21.2937 94.2304 21.2937C93.6395 21.2482 93.0637 21.1119 92.5031 20.8846C92.4122 20.8543 92.3061 20.8543 92.2152 20.9149C92.1546 20.9604 92.094 21.0058 92.0637 21.0816L92.0486 21.1573L91.8516 22.2179C91.8213 22.3694 91.8971 22.5361 92.0334 22.5967C92.791 22.9755 93.6243 23.1725 94.4576 23.1876C95.2152 23.2179 95.9425 22.9755 96.5334 22.5058C97.0637 22.0816 97.3515 21.4301 97.3364 20.7634C97.3364 20.3846 97.2303 20.021 97.0334 19.718C96.6697 19.2028 96.2152 18.7483 95.6849 18.3998C95.0788 17.9453 94.7758 17.5968 94.7758 17.3695C94.7758 17.1422 94.9425 17.0362 95.2758 17.0362C95.6091 17.0513 95.9425 17.1119 96.2606 17.2028C96.5334 17.2786 96.8061 17.3695 97.0788 17.4907C97.1849 17.5362 97.2909 17.521 97.3818 17.4604C97.4576 17.415 97.5182 17.3392 97.5333 17.2634L97.5485 17.2028L97.6546 16.0968C97.6697 15.9604 97.594 15.8089 97.4727 15.7483C96.7909 15.3695 96.0182 15.1726 95.2455 15.1574C94.5334 15.0816 93.8061 15.3392 93.2152 15.8241ZM81.4275 15.1119C80.9123 15.1119 80.3366 15.4756 79.7002 16.2028L79.5487 16.3998L79.5184 16.3695L79.6245 15.6422C79.6396 15.5362 79.6093 15.4453 79.5487 15.3544C79.5033 15.2938 79.4275 15.2483 79.3669 15.2332L79.2912 15.218H77.6851C77.5336 15.218 77.4124 15.3089 77.3669 15.4453L77.3518 15.521L76.367 22.627C76.3518 22.7331 76.3821 22.824 76.4427 22.8997C76.4882 22.9604 76.5488 22.9907 76.6245 23.021L76.7003 23.0361H78.3063C78.4578 23.0361 78.579 22.9452 78.6245 22.8088L78.6396 22.7331L79.2305 18.3998C79.3366 18.1422 79.5033 17.9301 79.7154 17.7483C79.9427 17.4604 80.276 17.2937 80.6245 17.2634C80.9275 17.2937 81.2154 17.4453 81.3972 17.6877C81.4729 17.7634 81.579 17.8089 81.7002 17.7937C81.7911 17.7786 81.8669 17.7331 81.9275 17.6574L81.9578 17.5968L82.6699 16.1574C82.7305 16.0362 82.7154 15.8695 82.6244 15.7635C82.3517 15.415 81.9123 15.1726 81.4275 15.1119ZM56.7914 17.0513C56.9581 17.0513 57.1248 17.0513 57.2914 17.0816L56.7914 20.6876C56.7763 20.7483 56.746 20.8089 56.7005 20.8543C56.2611 21.2331 55.7157 21.4604 55.1399 21.4755C54.8218 21.4907 54.5187 21.3392 54.3218 21.0816C54.1097 20.7634 54.0036 20.3695 54.0187 19.9755C54.0036 19.218 54.246 18.4755 54.7157 17.8846C55.246 17.2937 56.0036 16.9907 56.7914 17.0513ZM86.685 16.7028C86.988 16.6877 87.2911 16.8089 87.5032 17.021C87.7153 17.2483 87.8214 17.5362 87.8062 17.8392V17.9907L87.791 18.1422H85.488C85.3971 18.1422 85.3062 18.0968 85.2608 18.021C85.2153 17.9453 85.2002 17.8543 85.2456 17.7634C85.4577 17.1422 86.0335 16.718 86.685 16.7028ZM93.2304 13.4605H91.988C91.8819 13.4605 91.791 13.5059 91.7304 13.5817L91.6849 13.6423L90.791 15.415C90.7304 15.521 90.7456 15.6422 90.8062 15.7483C90.8516 15.8241 90.9274 15.8847 91.0183 15.8998H91.094H91.4274C91.488 15.8998 91.5486 15.8847 91.6092 15.8544L91.6546 15.8089L93.4576 14.0362C93.5486 13.9453 93.594 13.7938 93.5334 13.6726C93.4879 13.5362 93.3667 13.4453 93.2304 13.4605Z" fill="#3B741D"/>
</g>
</svg>
