<svg width="130" height="50" viewBox="0 0 130 50" fill="none" xmlns="http://www.w3.org/2000/svg">
<mask id="mask0_1062_9358" style="mask-type:alpha" maskUnits="userSpaceOnUse" x="0" y="0" width="130" height="50">
<rect width="130" height="50" fill="white"/>
</mask>
<g mask="url(#mask0_1062_9358)">
<path d="M29.7922 0.0497299C26.3926 0.377548 24.4318 2.25339 23.8854 5.70155C23.8126 6.15079 23.7761 6.92177 23.7519 8.43337C23.7215 10.3092 23.7094 10.546 23.6183 10.5703C23.5637 10.5885 23.2055 10.6431 22.823 10.6977C22.4406 10.7524 21.7728 10.8495 21.3357 10.9224C20.0062 11.1288 20.0002 11.1348 20.0002 12.61C20.0002 14.2977 19.9395 14.2491 22.1492 14.2491H23.7336L23.7458 22.8816C23.764 31.1924 23.7701 31.5263 23.8793 31.7084C24.0918 32.0666 24.0857 32.0666 26.1012 32.0848C28.1349 32.103 28.3231 32.0788 28.5538 31.7752L28.6813 31.6052L28.7116 22.9423L28.742 14.2795L31.6559 14.2491C34.7763 14.2188 34.7398 14.2188 34.9523 13.9031C35.1101 13.6602 35.1466 11.323 34.9948 10.9345C34.8066 10.4428 34.9098 10.4549 31.6134 10.4367L28.7177 10.4185L28.7359 8.40302C28.7602 6.169 28.7966 5.84725 29.1487 5.19161C29.4644 4.59062 29.9683 4.25673 30.8182 4.08068C31.4313 3.94712 32.6758 3.96533 33.4832 4.11103C34.3817 4.27494 34.8977 4.27494 35.0798 4.10496C35.3044 3.89856 35.3287 3.72858 35.3287 2.54479C35.3287 1.30029 35.2862 1.0514 35.0373 0.802497C34.843 0.602164 34.7398 0.559669 34.0113 0.371477C32.7183 0.0436592 31.1338 -0.0777548 29.7922 0.0497299Z" fill="#569F00"/>
<path d="M92.3869 0.644753C92.1016 0.735814 91.9863 0.826874 91.8831 1.03935C91.792 1.22754 91.7859 2.51453 91.7859 16.3557C91.7859 30.6158 91.792 31.4718 91.8952 31.6721C92.0955 32.0789 92.1987 32.0971 94.2446 32.091C96.3572 32.091 96.4239 32.0789 96.6303 31.6721L96.7639 31.405V23.5313V15.6515L97.2071 15.3783C98.7187 14.4374 100.528 13.8485 102.136 13.7818C104.201 13.6907 105.427 14.4435 105.84 16.0461C106.028 16.7989 106.052 17.5942 106.052 24.539C106.052 31.4354 106.052 31.5203 106.173 31.7207C106.398 32.091 106.513 32.1031 108.62 32.0849C110.308 32.0667 110.532 32.0546 110.672 31.9574C111.018 31.7207 111 32.2367 111 23.2399V14.9473L110.86 14.316C110.587 13.0715 110.186 12.2762 109.446 11.4931C108.371 10.3579 106.859 9.81758 104.735 9.81758C102.282 9.81758 99.9328 10.5461 97.5409 12.0516L96.7639 12.5373V6.92793C96.7639 1.89532 96.7518 1.29432 96.6668 1.07577C96.4907 0.632612 96.4361 0.62047 94.366 0.608329C93.3643 0.602258 92.4719 0.62047 92.3869 0.644753Z" fill="#569F00"/>
<path d="M60.9167 9.89053C56.6915 10.364 53.6804 13.0655 52.5938 17.3514C51.8228 20.405 51.9867 24.3813 52.9945 26.9674C53.9779 29.4746 55.878 31.2655 58.4277 32.0911C59.8422 32.5525 61.0503 32.7224 62.8593 32.7285C63.8914 32.7285 64.3042 32.7042 65.0144 32.5889C67.1271 32.2611 69.1911 31.5872 69.525 31.1198C69.701 30.877 69.7435 30.5309 69.7496 29.4382C69.7496 28.3758 69.701 28.1269 69.44 27.9448C69.2397 27.8052 69.0697 27.8234 68.1591 28.0541C65.8886 28.6369 64.3042 28.819 62.6529 28.6976C61.2142 28.5883 60.2368 28.3394 59.393 27.872C57.8571 27.0221 56.9465 25.3101 56.7219 22.8454L56.6794 22.3658L56.8251 22.4083C57.9724 22.7301 59.3687 22.9243 60.856 22.9668C63.9096 23.064 66.4896 22.5601 68.1044 21.5524C68.9422 21.0303 69.7678 20.1197 70.1078 19.3365C70.5024 18.4563 70.6784 17.2361 70.5874 16.0826C70.3992 13.6665 69.1243 11.7603 66.9935 10.7283C65.6276 10.0666 64.3588 9.81769 62.4648 9.82983C61.882 9.82983 61.1838 9.86018 60.9167 9.89053ZM63.5696 13.6362C64.1949 13.8001 64.6077 14.0186 65.0144 14.4071C65.6579 15.0203 65.8947 15.7002 65.8522 16.799C65.8158 17.6307 65.664 18.0374 65.2148 18.5049C64.7534 18.9905 64.116 19.3062 63.2539 19.4701C62.3312 19.6522 59.9879 19.6522 58.6948 19.4701C58.021 19.379 56.9161 19.1666 56.8251 19.1119C56.7704 19.0755 56.7826 18.9298 56.8797 18.432C57.4443 15.6456 58.8952 13.9761 61.111 13.5512C61.7484 13.4298 62.9383 13.4722 63.5696 13.6362Z" fill="#569F00"/>
<path d="M80.434 9.86035C77.5201 10.1457 75.2739 11.4812 74.3026 13.4906C73.5498 15.0387 73.5134 17.1513 74.2055 18.6447C74.8247 19.9923 75.9053 21.0001 77.5868 21.8014C77.9693 21.9835 79.2077 22.4935 80.3429 22.9306C82.9351 23.9262 83.6758 24.2783 84.1371 24.7457C84.3739 24.9764 84.5135 25.1828 84.5864 25.3892C84.9992 26.6094 84.5196 27.9025 83.4511 28.4185C82.8198 28.7281 82.2613 28.8313 81.0289 28.8616C79.3109 28.9102 77.9936 28.7402 75.881 28.206C74.3026 27.8053 74.1812 27.7811 73.908 27.8539C73.5559 27.951 73.5134 28.121 73.5134 29.5294C73.5134 31.1989 73.562 31.2717 74.8611 31.7574C76.1481 32.2309 77.8054 32.5708 79.5113 32.7105C80.604 32.8015 82.1581 32.7226 83.2751 32.5223C86.7415 31.897 88.9148 29.8269 89.2972 26.7915C89.3944 26.0266 89.3458 24.94 89.1758 24.2965C88.6719 22.3356 87.3303 21.1336 84.2889 19.9377C83.8215 19.7556 82.838 19.3671 82.1034 19.0757C79.3534 17.989 78.6492 17.4973 78.3942 16.4956C78.2789 16.0403 78.3093 15.6275 78.4914 15.1419C78.6674 14.6683 78.971 14.3466 79.4809 14.0977C80.0576 13.8124 80.5918 13.7031 81.6178 13.6606C82.9169 13.606 84.2221 13.7699 86.2922 14.2555C87.4032 14.5105 87.7188 14.5166 87.9435 14.292L88.1134 14.128V12.835C88.1134 11.2566 88.0892 11.1777 87.4699 10.8681C86.784 10.516 84.9688 10.0728 83.5543 9.90891C82.8562 9.82999 81.0411 9.79964 80.434 9.86035Z" fill="#569F00"/>
<path d="M48.5387 10.3033C47.5067 10.4248 46.4504 10.7829 45.6066 11.3111C44.9267 11.7421 44.441 12.1306 43.5972 12.9441C43.1662 13.3569 42.9051 13.5633 42.893 13.5147C42.8748 13.4662 42.808 13.1262 42.7351 12.762C42.6623 12.3917 42.5348 11.8028 42.4559 11.4446C42.2131 10.4187 42.1645 10.4005 39.9426 10.4369C38.8802 10.4551 38.6678 10.4733 38.4978 10.5644C38.0971 10.7829 38.1214 10.0605 38.1214 21.3035C38.1214 31.4415 38.1214 31.5205 38.2428 31.7208C38.4614 32.079 38.5828 32.0972 40.6165 32.0972C42.7048 32.0972 42.7655 32.085 42.978 31.6479C43.0994 31.393 43.0994 31.3201 43.0994 23.8835V16.3801L43.5304 16.1251C44.4471 15.5909 45.473 15.2024 46.5961 14.9656C47.191 14.8442 47.4278 14.826 48.9273 14.826C50.0989 14.826 50.6331 14.8017 50.7242 14.7532C50.9913 14.6014 51.0217 14.3889 51.0217 12.5981C51.0217 10.6858 51.0277 10.6979 50.4996 10.443C50.1778 10.2851 49.2854 10.2244 48.5387 10.3033Z" fill="#569F00"/>
<path d="M95.274 40.806C87.6087 46.4752 76.4983 49.5 66.9325 49.5C53.5196 49.5 41.4446 44.5221 32.3094 36.2429C31.5917 35.5919 32.2348 34.7046 33.096 35.2116C42.9547 40.9673 55.1445 44.4299 67.7363 44.4299C76.2284 44.4299 85.5703 42.6669 94.1601 39.0084C95.4577 38.4553 96.5429 39.8611 95.274 40.806Z" fill="#569F00"/>
<path d="M98.4605 37.1476C97.4844 35.8916 91.9838 36.5542 89.5148 36.848C88.7626 36.9402 88.6478 36.2834 89.3253 35.8109C93.7063 32.717 100.895 33.61 101.733 34.6471C102.572 35.6899 101.515 42.9206 97.3983 46.3717C96.7667 46.9017 96.1638 46.6194 96.4452 45.9165C97.3696 43.6004 99.4424 38.4093 98.4605 37.1476Z" fill="#569F00"/>
</g>
</svg>
