<svg width="64" height="64" viewBox="0 0 64 64" fill="none" xmlns="http://www.w3.org/2000/svg">
<mask id="mask0_1191_7884" style="mask-type:alpha" maskUnits="userSpaceOnUse" x="0" y="0" width="64" height="64">
<rect width="64" height="64" fill="#D9D9D9"/>
</mask>
<g mask="url(#mask0_1191_7884)">
</g>
<g clip-path="url(#clip0_1191_7884)">
<path d="M13.95 7.12001C13.52 7.27 12.91 7.89001 12.79 8.30001C12.73 8.51001 12.7 9.54 12.72 10.92L12.75 13.18L13.08 13.65C13.4 14.1 13.4 14.12 13.4 15.29V16.47L12.28 17.15C8.29 19.55 7.2 20.26 7.1 20.5C7.03 20.67 7 22.23 7.02 25.18L7.05 29.6L7.93 30.47L8.8 31.35V36.1V40.84L7.9 41.76L7 42.67V47.57C7 50.47 7.04 52.69 7.1 53.01C7.46 54.9 9.1 56.54 10.99 56.9C11.72 57.04 25.68 57.04 26.41 56.9C27.79 56.64 29.19 55.61 29.8 54.4C30.39 53.23 30.41 53 30.38 47.55L30.35 42.6L29.53 41.78L28.7 40.95V36.1V31.24L29.41 30.55C29.8 30.16 30.18 29.73 30.26 29.58C30.37 29.36 30.4 28.55 30.4 25.07C30.4 22.41 30.36 20.72 30.3 20.53C30.19 20.24 29.38 19.7 25.13 17.15L24 16.47V15.3C24 14.12 24 14.12 24.34 13.61C24.78 12.97 24.83 12.55 24.78 10.24C24.74 8.27 24.7 8.11 24.08 7.54C23.9 7.37001 23.6 7.18 23.41 7.11C22.96 6.96001 14.38 6.97001 13.95 7.12001ZM22.78 10.72L22.8 12.5H18.7H14.6V10.77C14.6 9.81001 14.63 9.00001 14.67 8.97001C14.71 8.93 16.54 8.91001 18.74 8.92001L22.75 8.95L22.78 10.72ZM22.02 15.9C22.05 17.16 22.08 17.42 22.23 17.57C22.32 17.67 23.76 18.58 25.43 19.6L28.45 21.46L28.48 25.09L28.5 28.72L27.6 29.65L26.7 30.58V36.1V41.63L27.61 42.55L28.51 43.47L28.48 48.11C28.45 52.74 28.45 52.75 28.21 53.27C27.92 53.92 27.2 54.61 26.55 54.86C26.07 55.04 25.7 55.05 18.7 55.05C11.7 55.05 11.33 55.04 10.85 54.86C10.2 54.61 9.48 53.92 9.19 53.27C8.95 52.75 8.95 52.74 8.92 48.12L8.89 43.49L9.77 42.59L10.65 41.69V36.1V30.51L9.77 29.62L8.9 28.72L8.92 25.09L8.95 21.45L11.95 19.62C13.6 18.62 15.04 17.7 15.15 17.59C15.33 17.42 15.35 17.24 15.38 15.9L15.41 14.4H18.7H21.99L22.02 15.9Z" fill="#569D32"/>
<path d="M16.59 32.37C15.15 33.83 14.88 34.15 14.57 34.8C13.89 36.19 13.89 37.47 14.55 38.88C15.13 40.1 16.22 41 17.55 41.35C19.69 41.9 21.86 40.88 22.87 38.84C23.25 38.07 23.25 38.05 23.25 36.85C23.25 35.65 23.25 35.64 22.86 34.84C22.52 34.14 22.28 33.85 20.81 32.37C19.16 30.71 19.15 30.7 18.7 30.7C18.26 30.7 18.25 30.71 16.59 32.37ZM19.87 34.22C21.24 35.61 21.35 35.8 21.35 36.85C21.35 37.75 21.16 38.21 20.58 38.77C19.16 40.14 16.7 39.53 16.15 37.67C15.96 37.03 15.96 36.67 16.16 36C16.3 35.54 16.47 35.31 17.48 34.28C18.11 33.63 18.66 33.1 18.69 33.1C18.73 33.1 19.25 33.61 19.87 34.22Z" fill="#569D32"/>
<path d="M35.87 17.8C35.33 18.23 35.44 19 36.1 19.38L36.39 19.55L35.19 20.76L34 21.98V27.63V33.27L34.25 33.54C34.44 33.75 34.58 33.8 34.94 33.8C35.31 33.8 35.42 33.75 35.64 33.49L35.9 33.18V28.29V23.4H45.5H55.1V37.25V51.1H45.5H35.9V46.3C35.9 41.08 35.9 41.07 35.35 40.82C34.93 40.63 34.61 40.68 34.29 40.99L34 41.28V46.91V52.53L35.2 53.75C35.86 54.41 36.4 54.99 36.4 55.03C36.4 55.07 36.34 55.1 36.26 55.1C35.98 55.1 35.59 55.54 35.53 55.92C35.48 56.25 35.51 56.33 35.83 56.65L36.18 57L45.55 56.98L54.92 56.95L55.16 56.67C55.57 56.19 55.38 55.27 54.85 55.14C54.71 55.11 54.6 55.05 54.6 55.02C54.6 54.99 55.11 54.44 55.74 53.8C56.37 53.17 56.91 52.54 56.94 52.4C56.98 52.26 56.99 45.37 56.98 37.08L56.95 22L55.71 20.76C54.5 19.55 54.47 19.51 54.73 19.45C55.09 19.36 55.4 18.95 55.4 18.58C55.4 18.22 55.16 17.75 54.95 17.66C54.86 17.63 50.59 17.6 45.46 17.6C36.21 17.6 36.12 17.6 35.87 17.8ZM52.68 20.43C53.19 20.94 53.57 21.39 53.54 21.43C53.44 21.52 37.4 21.52 37.4 21.43C37.4 21.39 37.82 20.94 38.32 20.43L39.25 19.5H45.5H51.75L52.68 20.43ZM52.65 54.1L51.65 55.1H45.46H39.27L38.34 54.18C37.82 53.68 37.4 53.23 37.4 53.18C37.4 53.14 41.06 53.1 45.52 53.1H53.65L52.65 54.1Z" fill="#569D32"/>
<path d="M44.05 30.56C42.01 31 40.27 32.37 39.35 34.25C37.66 37.69 39.03 41.72 42.45 43.4C43.47 43.9 44.32 44.1 45.46 44.1C49.27 44.1 52.3 41.07 52.3 37.25C52.3 34.23 50.35 31.6 47.45 30.7C46.52 30.41 45 30.35 44.05 30.56ZM46.92 32.6C49.4 33.36 50.89 35.98 50.25 38.45C49.89 39.82 48.9 41.04 47.64 41.66C44.92 43.01 41.67 41.6 40.79 38.67C40.5 37.74 40.55 36.3 40.9 35.5C41.51 34.08 42.63 33.03 43.98 32.59C44.78 32.34 46.09 32.34 46.92 32.6Z" fill="#569D32"/>
<path d="M34.54 36.4C34.22 36.53 34 36.9 34 37.31C34 38.14 35 38.51 35.61 37.91C36.34 37.17 35.52 36 34.54 36.4Z" fill="#569D32"/>
</g>
<defs>
<clipPath id="clip0_1191_7884">
<rect width="50" height="50" fill="white" transform="translate(7 7)"/>
</clipPath>
</defs>
</svg>
