<svg width="64" height="64" viewBox="0 0 64 64" fill="none" xmlns="http://www.w3.org/2000/svg">
<mask id="mask0_1191_7897" style="mask-type:alpha" maskUnits="userSpaceOnUse" x="0" y="0" width="64" height="64">
<rect width="64" height="64" fill="#D9D9D9"/>
</mask>
<g mask="url(#mask0_1191_7897)">
</g>
<mask id="mask1_1191_7897" style="mask-type:luminance" maskUnits="userSpaceOnUse" x="7" y="7" width="50" height="50">
<path d="M56.975 7H7V56.975H56.975V7Z" fill="white"/>
</mask>
<g mask="url(#mask1_1191_7897)">
<path d="M7.51025 11.1215C6.98052 11.4114 7.0105 10.202 7.00051 32.0511C7.00051 54.3399 6.96053 52.7907 7.59021 53.0605C8.10995 53.2704 8.38982 53.1105 9.56922 51.9312L10.6987 50.8217L11.8181 51.9312C12.9475 53.0406 13.2774 53.2405 13.7171 53.1105C13.8471 53.0706 14.4568 52.5408 15.0764 51.9312L16.1959 50.8217L17.3253 51.9411C18.9345 53.5403 18.9246 53.5403 20.6337 51.8412L21.6332 50.8617L22.7327 51.9511C23.8421 53.0406 24.1619 53.2405 24.6117 53.1105C24.7417 53.0706 25.3513 52.5408 25.961 51.9312L27.0905 50.8117L28.2099 51.9312C29.3393 53.0506 29.6592 53.2505 30.109 53.1105C30.2389 53.0706 30.8486 52.5408 31.4683 51.9312L32.5877 50.8217L33.7172 51.9312C34.8965 53.1105 35.1764 53.2704 35.6962 53.0605C36.3058 52.8007 36.2859 53.1505 36.2859 44.2749V36.5794C36.2859 36.3271 36.1974 36.0829 36.036 35.8892C35.7061 35.4994 35.2964 35.4094 34.8866 35.6193C34.2968 35.9192 34.2869 36.0391 34.2869 40.5168V44.5648H21.5932H8.89956V32.071V19.5773H21.5932H34.2769L34.3069 23.8352L34.3337 27.6539C34.3357 27.9333 34.4568 28.1985 34.6667 28.3829C34.8466 28.5428 35.1064 28.6728 35.2464 28.6728C35.6162 28.6728 36.026 28.4229 36.166 28.1231C36.2734 27.6608 36.3358 11.9012 36.166 11.5313C36.0959 11.3814 35.9261 11.2015 35.7762 11.1215C35.1864 10.8217 35.0365 10.9016 33.7672 12.151L32.5877 13.3204L31.4583 12.211C30.3388 11.1016 30.019 10.9016 29.5693 11.0316C29.4393 11.0716 28.8296 11.6013 28.2199 12.211L27.0905 13.3304L25.9711 12.211C24.8416 11.0916 24.5217 10.8917 24.072 11.0316C23.942 11.0716 23.3423 11.5913 22.7426 12.191L21.6332 13.2805L20.6437 12.301C18.8946 10.5818 18.9645 10.5818 17.3753 12.151L16.1959 13.3204L15.0665 12.211C13.947 11.1016 13.6272 10.9016 13.1774 11.0316C13.0475 11.0716 12.4378 11.6013 11.8281 12.211L10.6987 13.3204L9.51925 12.151C8.25988 10.9116 8.06997 10.8117 7.51025 11.1215ZM15.8761 15.6293C16.3258 15.7692 16.6457 15.5693 17.7751 14.4499L18.8946 13.3304L20.024 14.4499C21.1435 15.5693 21.4633 15.7692 21.913 15.6293C22.043 15.5893 22.6527 15.0596 23.2724 14.4499L24.3918 13.3404L25.5213 14.4599C26.7406 15.6692 27.0705 15.8491 27.5402 15.5393C27.6702 15.4494 28.2399 14.9196 28.7796 14.3499L29.7791 13.3304L30.9085 14.4399C31.5282 15.0496 32.1379 15.5893 32.2679 15.6293C32.6776 15.7492 33.0175 15.5793 33.6672 14.9496L34.2869 14.3399V16.0091V17.6782L21.6232 17.6583L8.94953 17.6283L8.91955 16.1291C8.90955 15.3094 8.91955 14.5698 8.94953 14.4899C8.98952 14.3799 9.17942 14.5098 9.62919 14.9596C10.3288 15.6493 10.7386 15.8092 11.1484 15.5393C11.2784 15.4494 11.8481 14.9297 12.4078 14.3699L13.4273 13.3704L14.5367 14.4599C15.1465 15.0596 15.7462 15.5893 15.8761 15.6293ZM34.2869 48.133V49.8022L33.6672 49.1925C32.6077 48.163 32.4278 48.193 30.9085 49.6923L29.7791 50.8017L28.8096 49.8122C27.1004 48.053 27.1705 48.0631 25.5712 49.6323L24.3918 50.8017L23.2624 49.6923C22.1429 48.5828 21.8231 48.3829 21.3733 48.5129C21.2434 48.5528 20.6337 49.0826 20.024 49.6923L18.8946 50.8117L17.7751 49.6923C17.1555 49.0826 16.5457 48.5528 16.4158 48.5129C15.966 48.3829 15.6462 48.5828 14.5367 49.6722L13.4273 50.7717L12.4378 49.7922C10.7986 48.163 10.7186 48.143 9.70916 49.1126C9.33934 49.4724 8.99951 49.7322 8.96952 49.6923C8.87957 49.6123 8.87957 46.6138 8.96952 46.5339C8.99951 46.4938 14.7166 46.4638 21.6632 46.4638H34.2869V48.133Z" fill="#569D32"/>
<path d="M43.5822 12.9306C42.6027 13.2104 41.6832 13.9801 41.6832 14.5198C41.6832 14.6097 42.2929 16.129 43.0425 17.9081C43.7921 19.6772 44.5018 21.3464 44.6117 21.6163C44.8516 22.1759 44.9115 22.086 43.8821 22.6657C42.2129 23.6152 40.7636 25.5143 40.1139 27.6232C39.935 28.2198 39.8432 28.8391 39.8415 29.4619L39.8341 32.071V34.6771C39.8341 35.3016 39.9285 35.9225 40.1139 36.5188C40.8036 38.7377 42.4128 40.7567 44.2119 41.6762C44.5217 41.8361 44.7816 42.0061 44.7816 42.056C44.7816 42.106 44.6917 42.3659 44.5717 42.6357C43.5723 44.9546 41.6832 49.4823 41.6832 49.5723C41.6832 49.8821 42.053 50.3918 42.5127 50.7017C43.8921 51.6512 45.7012 51.5213 47.0705 50.3719C47.9801 49.6022 48.7796 49.6022 49.6892 50.3719C50.7087 51.2214 51.898 51.5213 53.0775 51.2214C54.137 50.9516 55.0765 50.2119 55.0765 49.6422C55.0765 49.4323 54.7567 48.6527 53.1274 44.8247C52.058 42.3259 51.958 42.036 52.1079 41.9261C52.1979 41.8661 52.5577 41.6562 52.8976 41.4663C53.7972 40.9666 55.2164 39.5173 55.7661 38.5378C56.8356 36.6387 57.0055 35.6392 56.9555 31.6313C56.9156 28.9226 56.8856 28.5428 56.6857 27.8232C56.0959 25.6642 54.6067 23.6452 52.8876 22.6757C51.8481 22.086 51.9081 22.1759 52.148 21.6163C52.2579 21.3464 52.8176 20.047 53.3774 18.7277C54.7567 15.4893 55.0765 14.6997 55.0765 14.4998C55.0765 13.9301 54.137 13.1905 53.0775 12.9206C51.898 12.6207 50.7786 12.9006 49.6792 13.7702C49.3993 13.9901 48.9895 14.2299 48.7696 14.2899C48.2499 14.4498 47.7501 14.2999 47.0805 13.7702C45.981 12.9006 44.7417 12.6107 43.5822 12.9306ZM45.0815 14.8097C45.2814 14.8796 45.6912 15.1495 46.0011 15.3993C46.7906 16.039 47.3304 16.2289 48.4298 16.2289C49.4793 16.2289 50.0989 15.999 50.9085 15.2994C51.1684 15.0695 51.5582 14.8396 51.7681 14.7797C52.1379 14.6797 52.7376 14.7396 52.8276 14.8796C52.8476 14.9196 52.4378 15.9591 51.9181 17.1884C51.3984 18.4178 50.7786 19.8771 50.5388 20.4268C50.119 21.4064 50.109 21.4263 49.7591 21.4563L49.3993 21.4863L49.3594 20.3369C49.3294 19.2274 49.3193 19.1675 49.0595 18.9076C48.8496 18.6977 48.6797 18.6277 48.3798 18.6277C48.08 18.6277 47.91 18.6977 47.7102 18.9076C47.4403 19.1675 47.4303 19.2274 47.4003 20.3369L47.3603 21.4863L47.0105 21.4563C46.6607 21.4263 46.6507 21.4064 46.1909 20.3269C45.931 19.7172 45.3214 18.2779 44.8216 17.1285C44.3319 15.969 43.9321 14.9896 43.9321 14.9296C43.9321 14.8396 44.2919 14.6997 44.5817 14.6897C44.6617 14.6897 44.8916 14.7497 45.0815 14.8097ZM50.039 23.5253C52.3279 24.125 54.1169 25.8841 54.7966 28.2229C55.0165 28.9825 55.0265 29.1825 55.0265 32.071C55.0265 34.9696 55.0165 35.1594 54.7966 35.939C54.2069 37.978 52.6077 39.7072 50.6487 40.4169C48.1999 41.3064 45.5213 40.6967 43.6822 38.8476C42.9726 38.128 42.4028 37.2184 42.073 36.2689C41.8531 35.6492 41.8431 35.4493 41.8031 32.3408C41.7732 29.2724 41.7831 29.0226 41.9831 28.2429C42.7427 25.2744 45.6612 23.1355 48.6897 23.3254C49.0995 23.3554 49.7091 23.4453 50.039 23.5253ZM47.4003 43.8151C47.4303 44.9146 47.4403 44.9746 47.7102 45.2344C48.09 45.6142 48.6697 45.6142 49.0595 45.2344C49.3193 44.9746 49.3294 44.9146 49.3594 43.8151L49.3993 42.6657H49.7391C50.119 42.6657 50.0989 42.6357 50.7786 44.2649C50.8886 44.5148 51.3984 45.7242 51.9181 46.9636C52.5478 48.4328 52.8376 49.2424 52.7777 49.3024C52.6377 49.4423 51.7582 49.4124 51.4683 49.2624C51.3384 49.1924 51.0585 48.9726 50.8386 48.7827C50.6287 48.5927 50.1989 48.3229 49.8891 48.1729C49.4193 47.9531 49.1894 47.9131 48.4298 47.9131C47.3204 47.9131 46.8006 48.093 45.961 48.7726C45.6212 49.0425 45.1814 49.3124 44.9816 49.3624C44.6117 49.4623 44.022 49.4023 43.9321 49.2624C43.9121 49.2224 44.2019 48.4828 44.5717 47.6032C44.9516 46.7337 45.5612 45.2944 45.931 44.4148C46.3009 43.5353 46.6207 42.7857 46.6507 42.7357C46.6707 42.6957 46.8406 42.6657 47.0305 42.6657H47.3603L47.4003 43.8151Z" fill="#569D32"/>
<path d="M51.1285 33.4904C50.9285 33.6703 50.8486 33.8602 50.7786 34.36C50.6087 35.6093 49.8191 36.3889 48.5797 36.5688C48.11 36.6389 47.88 36.7288 47.6902 36.9087C47.1604 37.4484 47.4803 38.388 48.2399 38.5279C49.0395 38.6778 50.4788 38.1281 51.3384 37.3385C52.5977 36.1891 53.1574 33.8402 52.2979 33.3805C51.948 33.2005 51.4083 33.2505 51.1285 33.4904Z" fill="#569D32"/>
<path d="M20.5037 22.2859C18.9145 22.4758 17.3953 23.0455 16.056 23.9751C15.2464 24.5348 14.037 25.7342 13.5172 26.5039C13.0375 27.1935 12.4378 28.4928 12.1379 29.5223C11.888 30.3419 11.868 30.5718 11.868 32.071C11.868 33.5703 11.888 33.8002 12.1379 34.6198C12.7076 36.5488 13.5772 37.9781 14.9665 39.2674C16.8455 41.0166 19.0545 41.8862 21.6431 41.8862C24.2619 41.8862 26.4608 41.0166 28.3798 39.2075C32.4877 35.3394 32.4977 28.8127 28.3998 24.9446C26.7306 23.3754 24.9216 22.5358 22.6427 22.276C21.6431 22.166 21.5532 22.166 20.5037 22.2859ZM23.1724 24.3349C26.1309 24.9446 28.3698 27.0036 29.2494 29.9221C29.4793 30.6917 29.5192 31.0016 29.5192 32.071C29.5192 33.1405 29.4793 33.4503 29.2494 34.22C28.4398 36.9087 26.4208 38.9177 23.7321 39.6872C22.6027 40.0071 20.6836 40.0071 19.5542 39.6872C17.3253 39.0476 15.5662 37.5783 14.5467 35.5193C13.977 34.3599 13.7571 33.4104 13.7571 32.071C13.7571 30.7417 13.977 29.7922 14.5467 28.6228C15.6862 26.294 17.865 24.6847 20.4937 24.2449C21.0934 24.145 22.4628 24.185 23.1724 24.3349Z" fill="#569D32"/>
<path d="M20.9535 26.8837C20.5937 27.3135 20.6038 27.7933 20.9835 28.1831C21.2035 28.393 21.3733 28.4729 21.6432 28.4729C21.9131 28.4729 22.083 28.393 22.3029 28.1831C22.6827 27.7933 22.6927 27.3135 22.3328 26.8837C22.1229 26.6239 22.003 26.5739 21.6432 26.5739C21.2834 26.5739 21.1634 26.6239 20.9535 26.8837Z" fill="#569D32"/>
<path d="M16.7457 29.9622C15.9361 30.312 15.9561 31.4714 16.7856 31.7813C17.0955 31.9012 17.6452 31.7213 17.8451 31.4414C18.075 31.1216 18.035 30.5319 17.7751 30.232C17.5253 29.9522 17.0555 29.8322 16.7457 29.9622Z" fill="#569D32"/>
<path d="M25.8311 29.9721C25.3613 30.1621 25.1415 30.8917 25.3913 31.3814C25.5513 31.6613 26.061 31.8912 26.3808 31.8212C27.1004 31.6613 27.3903 30.7318 26.8906 30.2221C26.6107 29.9421 26.151 29.8323 25.8311 29.9721Z" fill="#569D32"/>
<path d="M21.2334 31.2115C20.5937 31.4914 20.5237 32.5109 21.1234 32.8707C21.3033 32.9807 21.5232 33.0706 21.6132 33.0706C22.103 33.0706 22.5927 32.5708 22.5927 32.0711C22.5927 31.7013 22.3129 31.3015 21.983 31.1816C21.5932 31.0516 21.6132 31.0516 21.2334 31.2115Z" fill="#569D32"/>
<path d="M18.4248 35.1195C18.075 35.3594 17.9451 35.8892 18.145 36.2989C18.5148 37.0785 19.5643 37.0586 19.8941 36.279C20.154 35.6493 19.6942 34.9696 19.0245 34.9696C18.8146 34.9696 18.5448 35.0395 18.4248 35.1195Z" fill="#569D32"/>
<path d="M23.6622 35.1696C23.3223 35.4394 23.2224 35.9492 23.4323 36.3489C23.7321 36.9286 24.3718 37.0486 24.8716 36.6188C25.3613 36.209 25.3713 35.6493 24.8916 35.1696C24.6217 34.8997 24.002 34.8997 23.6622 35.1696Z" fill="#569D32"/>
<path d="M34.8266 31.2615C34.1769 31.6613 34.217 32.5708 34.8866 32.9207C35.2964 33.1306 35.7062 33.0406 36.036 32.6508C36.3658 32.261 36.3559 31.8512 36.0161 31.4714C35.6562 31.0815 35.2364 31.0016 34.8266 31.2615Z" fill="#569D32"/>
<path d="M34.2869 20.6517H36.2359V27.7732C36.2359 28.3114 35.7996 28.7477 35.2614 28.7477C34.7231 28.7477 34.2869 28.3114 34.2869 27.7732V20.6517Z" fill="#569D32"/>
<path d="M34.2869 43.5903H36.2359V36.4689C36.2359 35.9307 35.7996 35.4944 35.2614 35.4944C34.7231 35.4944 34.2869 35.9307 34.2869 36.4689V43.5903Z" fill="#569D32"/>
<path d="M35.2988 33.0205C35.8164 33.0205 36.2359 32.601 36.2359 32.0835C36.2359 31.566 35.8164 31.1465 35.2988 31.1465C34.7813 31.1465 34.3618 31.566 34.3618 32.0835C34.3618 32.601 34.7813 33.0205 35.2988 33.0205Z" fill="#569D32"/>
</g>
</svg>
