<svg width="64" height="64" viewBox="0 0 64 64" fill="none" xmlns="http://www.w3.org/2000/svg">
<mask id="mask0_1191_7888" style="mask-type:alpha" maskUnits="userSpaceOnUse" x="0" y="0" width="64" height="64">
<rect width="64" height="64" fill="#D9D9D9"/>
</mask>
<g mask="url(#mask0_1191_7888)">
</g>
<g clip-path="url(#clip0_1191_7888)">
<path d="M9.24439 10.886C7.2248 11.4368 5.6372 13.0568 5.162 15.0656C4.9244 16.0916 4.9244 47.9084 5.162 48.9344C5.648 50.9972 7.2788 52.628 9.34159 53.114C10.3676 53.3516 53.6324 53.3516 54.6584 53.114C56.7212 52.628 58.352 50.9972 58.838 48.9344C59.0756 47.9084 59.0756 16.0916 58.838 15.0656C58.3628 13.0352 56.7644 11.4152 54.7124 10.886C53.8052 10.6484 10.1192 10.6592 9.24439 10.886ZM50.522 13.856L49.442 14.936H29.84C10.3676 14.936 10.238 14.936 9.88159 15.152C9.16879 15.584 9.21199 14.5148 9.21199 32C9.21199 49.3016 9.17959 48.3944 9.81679 48.8156C10.0328 48.956 10.4 49.0208 11.1776 49.064L12.236 49.118L11.2532 50.1116C10.1408 51.2456 10.0544 51.278 9.13639 50.846C8.38039 50.5004 7.6676 49.7444 7.3544 48.9776L7.106 48.362V32.054C7.106 16.7072 7.1168 15.7136 7.3004 15.1952C7.6784 14.1152 8.44519 13.37 9.56839 12.9812C10.0976 12.7976 11.1992 12.7868 30.866 12.776H51.602L50.522 13.856ZM55.0256 13.2188C55.6628 13.5428 56.3648 14.3096 56.6456 15.0224L56.894 15.638V32V48.362L56.6456 48.9776C56.3324 49.766 55.6088 50.5004 54.8096 50.8784L54.194 51.17L33.674 51.2024L13.154 51.224L14.234 50.144L15.314 49.064H21.3944C28.058 49.064 27.95 49.0748 28.22 48.4268C28.3928 48.0056 28.2848 47.606 27.9284 47.2712L27.6476 47.012H22.5932C19.8068 47.012 17.528 46.9796 17.528 46.9364C17.528 46.8932 18.5216 45.8564 19.7312 44.636C21.1352 43.232 21.9668 42.314 22.01 42.1196C22.1072 41.7632 21.902 41.234 21.5888 41.018C21.47 40.9316 21.1784 40.856 20.9516 40.856C20.5412 40.856 20.4224 40.9532 17.4308 43.934L14.342 47.012H12.8624H11.372V32V16.988H29.3C39.1604 16.988 47.228 17.0204 47.228 17.0744C47.228 17.1176 46.2992 18.0788 45.1652 19.202C44.0312 20.336 43.0376 21.3836 42.9512 21.5456C42.7568 21.9236 42.7568 22.388 42.962 22.6688C43.178 22.982 43.7072 23.1872 44.0636 23.09C44.258 23.0468 45.4136 21.9776 47.39 20.0012L50.414 16.988H51.5264H52.628V32V47.012H44.4848H36.3524L36.0716 47.2712C35.7152 47.606 35.6072 48.0056 35.78 48.4268C36.0608 49.0856 35.6936 49.064 45.1436 49.064C53.6 49.064 53.7728 49.064 54.1184 48.848C54.8312 48.416 54.788 49.4852 54.788 32C54.788 18.4244 54.7664 16.0592 54.6368 15.746C54.41 15.206 53.9024 14.936 53.114 14.936H52.466L53.438 13.964C53.9672 13.424 54.4424 12.992 54.4964 12.992C54.5396 12.992 54.7772 13.0892 55.0256 13.2188Z" fill="#569D32"/>
<path d="M32.162 23.5329C29.6672 23.9001 27.7556 24.4833 25.682 25.5201C23.738 26.4921 22.4852 27.3993 20.6924 29.1273L19.2452 30.5205L17.0528 28.3497C14.612 25.9089 14.5256 25.8657 13.8344 26.4813L13.478 26.7945V32.0001V37.2057L13.8344 37.5189C14.5256 38.1345 14.612 38.0913 17.0528 35.6505L19.2452 33.4797L20.6816 34.8729C22.4528 36.5901 23.7164 37.4973 25.682 38.4693C28.8032 40.0245 31.3844 40.5969 34.916 40.4997C38.0912 40.4241 40.2728 39.8841 43.07 38.4801C45.1652 37.4325 46.2992 36.5793 48.5672 34.3653C51.17 31.8165 51.17 32.1837 48.578 29.6349C47.444 28.5333 46.202 27.4317 45.608 26.9997C44.3228 26.0925 41.9144 24.8829 40.4132 24.3969C38.3612 23.7273 37.184 23.5545 34.7 23.5221C33.4796 23.5005 32.3456 23.5113 32.162 23.5329ZM36.7736 25.6821C37.9724 25.8657 39.3116 26.1897 40.154 26.5029L40.7372 26.7189L40.424 27.3345C39.6248 28.9221 39.3224 30.1965 39.3224 32.0001C39.3224 33.7929 39.6248 35.0673 40.424 36.6657L40.7372 37.2705L39.9596 37.5513C38.0264 38.2425 35.9312 38.5449 33.62 38.4477C28.9868 38.2533 24.9908 36.3741 21.416 32.7021L20.714 31.9785L21.9668 30.7797C25.0124 27.8421 28.0472 26.2869 31.8812 25.6821C33.134 25.4877 35.4992 25.4877 36.7736 25.6821ZM43.7504 28.2957C44.8628 29.0301 46.2452 30.1857 47.282 31.2333L48.0272 32.0001L47.336 32.7129C46.0616 34.0089 43.988 35.6721 43.0376 36.1473C42.692 36.3309 42.6704 36.3309 42.5192 36.1365C42.2276 35.7477 41.7308 34.4085 41.5472 33.5121C41.342 32.4537 41.3852 30.9417 41.666 29.8941C41.882 29.0949 42.5516 27.6801 42.7136 27.6801C42.7784 27.6801 43.2428 27.9609 43.7504 28.2957ZM16.6856 33.1017L15.584 34.2141V32.0001V29.7861L16.6856 30.8985L17.798 32.0001L16.6856 33.1017Z" fill="#569D32"/>
<path d="M31.676 26.9889C31.136 27.4533 30.8768 28.0581 30.8768 28.8681C30.8768 30.3261 31.9352 31.3953 32.8424 30.8553C33.4148 30.5205 33.5552 29.9157 33.188 29.3541C32.918 28.9437 32.918 28.7061 33.188 28.3605C33.512 27.9501 33.4688 27.4101 33.0908 27.0213C32.6696 26.6109 32.1512 26.6001 31.676 26.9889Z" fill="#569D32"/>
<path d="M36.428 29.8616C35.3264 30.596 35.186 32.5292 36.1688 33.5336C36.7736 34.16 37.5296 34.0952 37.8968 33.3824C38.0912 33.0044 38.0264 32.4212 37.778 32.216C37.5512 32.0324 37.5728 31.6868 37.832 31.298C38.1344 30.8444 38.102 30.4448 37.7564 30.056C37.346 29.6024 36.9032 29.5376 36.428 29.8616Z" fill="#569D32"/>
<path d="M31.514 33.0476C30.974 33.6092 30.7364 34.4408 30.8984 35.2292C31.2116 36.7196 32.3888 37.4 33.134 36.5144C33.458 36.1256 33.4796 35.7368 33.188 35.2616C33.0692 35.0672 32.972 34.8404 32.972 34.754C32.972 34.6676 33.0692 34.4408 33.188 34.2464C33.4904 33.7388 33.4688 33.3392 33.0908 32.9612C32.6156 32.486 32.0324 32.5184 31.514 33.0476Z" fill="#569D32"/>
<path d="M43.6964 30.7905C43.5668 30.8121 43.3292 30.9741 43.178 31.1469C42.8216 31.5789 42.8216 32.0973 43.1672 32.5077C43.3832 32.7561 43.5128 32.8101 43.934 32.8101C44.3552 32.8101 44.4848 32.7561 44.7008 32.5077C45.3488 31.7517 44.69 30.6393 43.6964 30.7905Z" fill="#569D32"/>
<path d="M31.3304 47.2604C30.9632 47.606 30.8768 47.9084 31.028 48.362C31.3088 49.226 32.486 49.2908 32.9288 48.47C33.4472 47.5088 32.1404 46.5152 31.3304 47.2604Z" fill="#569D32"/>
</g>
<defs>
<clipPath id="clip0_1191_7888">
<rect width="54" height="54" fill="white" transform="translate(5 5)"/>
</clipPath>
</defs>
</svg>
