<svg width="64" height="64" viewBox="0 0 64 64" fill="none" xmlns="http://www.w3.org/2000/svg">
<mask id="mask0_1191_7876" style="mask-type:alpha" maskUnits="userSpaceOnUse" x="0" y="0" width="64" height="64">
<rect width="64" height="64" fill="#D9D9D9"/>
</mask>
<g mask="url(#mask0_1191_7876)">
<g clip-path="url(#clip0_1191_7876)">
<path d="M32.87 7.19996C32.73 7.30997 32.44 7.72996 32.22 8.12996C32 8.53996 31.62 9.17996 31.37 9.55996L30.91 10.26L30.06 9.84996C25.92 7.81996 20.45 7.83996 16.28 9.89996C14.62 10.72 14.15 11.25 14.45 11.96C14.82 12.84 17.96 14.22 20.6 14.65C21.99 14.88 24.5 14.88 25.79 14.66C26.3 14.56 26.74 14.51 26.77 14.54C26.79 14.56 26.55 14.78 26.23 15.01C21.25 18.7 14.87 20 8.76 18.58C7.9 18.38 7.85 18.38 7.54 18.55C6.97 18.86 6.84 19.49 7.25 19.98C7.44 20.21 7.67 20.32 8.34 20.49C10.95 21.14 14.14 21.27 17.22 20.84L17.7 20.77V21.28C17.7 21.82 17.54 22.74 17.39 23.02C17.31 23.17 17.25 23.17 16.78 23.04C16.49 22.97 15.86 22.9 15.39 22.9C12.43 22.9 9.57 24.86 8.02 27.95C6.37 31.25 6.8 34.97 9.09 37.12C9.88 37.87 10.49 38.21 11.5 38.49C13.34 39 15.48 38.6 17.26 37.4L17.97 36.92L18.46 37.42C21.59 40.6 26.32 39.75 28.63 35.6C29.99 33.15 30.05 29.48 28.76 26.91C27.85 25.11 26.4 23.79 24.66 23.19L23.85 22.91V18.75L24.3 18.52C25.73 17.75 26.96 16.95 28.18 15.98L28.91 15.39L28.83 16.07C28.68 17.32 28.74 19.58 28.94 20.65C29.28 22.47 29.95 24.13 30.96 25.67C31.61 26.65 31.9 26.9 32.38 26.9C32.67 26.9 32.82 26.82 33.19 26.42C33.45 26.16 33.87 25.58 34.13 25.13C36.77 20.64 36.66 14.73 33.87 10.55L33.47 9.94996L33.88 9.14996C34.41 8.10996 34.44 7.96996 34.25 7.56996C33.98 6.99996 33.34 6.82997 32.87 7.19996ZM26.55 10.64C27.54 10.9 28.71 11.31 29 11.5C29.2 11.64 29.07 11.71 28 12.11C26.27 12.74 25.57 12.85 23.2 12.85C21.2 12.85 20.98 12.83 19.98 12.58C18.82 12.28 17.3 11.73 17.3 11.61C17.3 11.5 18.69 10.96 19.5 10.75C20.99 10.36 21.51 10.31 23.55 10.34C25.32 10.37 25.67 10.41 26.55 10.64ZM32.83 12.58C34.23 15.25 34.49 18.91 33.49 21.94C33.18 22.87 32.54 24.2 32.39 24.2C32.28 24.2 31.77 23.26 31.46 22.47C30.33 19.6 30.36 16.31 31.55 13.38C31.84 12.66 32.27 11.9 32.39 11.9C32.44 11.9 32.64 12.21 32.83 12.58ZM21.88 21.31L21.85 22.92L21.05 23.19C20.61 23.34 19.99 23.63 19.66 23.84C19.11 24.19 19.08 24.2 19.14 23.98C19.46 22.97 19.6 22.15 19.6 21.3V20.35L20.58 20.04C22.04 19.56 21.91 19.43 21.88 21.31ZM16.29 24.95C16.3 24.97 16.25 25.09 16.16 25.22C15.9 25.58 15.96 26.07 16.29 26.41C16.45 26.57 16.68 26.7 16.8 26.7C16.97 26.7 17 26.74 16.95 26.87C16.61 27.65 16.18 29.09 16.09 29.75C15.87 31.32 16.13 33.49 16.7 34.78L16.91 35.25L16.58 35.52C16.07 35.95 14.72 36.58 14.02 36.71C11.21 37.24 8.99 35.2 8.98 32.06C8.97 29.99 9.92 27.91 11.52 26.45C12.3 25.75 13.71 25.03 14.55 24.91C15.08 24.83 16.19 24.86 16.29 24.95ZM21.9 25.31C21.9 25.76 22.37 26.2 22.85 26.2C23.33 26.2 23.8 25.76 23.8 25.31C23.8 24.93 23.89 24.92 24.65 25.29C26.18 26.01 27.38 27.9 27.7 30.09C28.12 32.92 26.78 35.91 24.62 36.98C23.89 37.33 23.81 37.35 22.86 37.35C21.93 37.35 21.8 37.32 21.16 37.02C20.27 36.6 19.29 35.62 18.77 34.63C17.03 31.31 18.13 26.75 21.02 25.3C21.79 24.92 21.9 24.92 21.9 25.31Z" fill="#569D32"/>
<path d="M41.7 7.08997C41 7.30997 40.38 7.82997 40.04 8.49997C39.85 8.87997 39.8 9.77996 39.93 10.46C40.01 10.87 40.01 10.88 39.67 10.94C39.16 11.03 38.56 11.52 38.31 12.02C38.13 12.41 38.1 12.64 38.1 13.85C38.1 15.52 38.25 15.96 38.96 16.39L39.39 16.65L39.4 21.9V27.15L38.62 27.32C35.4 27.98 32.78 30.49 31.88 33.75C31.68 34.49 31.66 34.82 31.62 38.13C31.58 42.12 31.57 42.07 32.26 42.36C32.56 42.48 32.65 42.48 32.95 42.35C33.56 42.1 33.6 41.89 33.6 38.62V35.72L34.03 35.38C36.32 33.54 39.37 33.2 41.9 34.51C42.64 34.89 42.85 35.04 43.7 35.8C45.03 36.98 45.96 37.56 47.3 38C49.55 38.75 52.04 38.59 54.17 37.55C54.68 37.3 55.04 37.18 55.06 37.24C55.08 37.3 55.09 41.33 55.08 46.2L55.05 55.05L33.61 55.1L33.58 52.56C33.55 50.15 33.54 50 33.34 49.73C32.92 49.17 32.06 49.21 31.75 49.81C31.55 50.18 31.53 56.04 31.72 56.45C31.98 57.03 31.36 57 44.3 57C57.31 57 56.64 57.03 56.89 56.43C56.98 56.22 57 53.43 56.98 45.35L56.95 34.55L56.72 33.75C56.31 32.29 55.52 30.86 54.56 29.87C54.31 29.61 54.1 29.38 54.1 29.36C54.1 29.34 54.34 29.18 54.63 29.02C56.22 28.12 57.21 26.04 56.93 24.2C56.41 20.88 52.87 19.02 49.95 20.54C49.62 20.71 49.32 20.86 49.28 20.88C49.23 20.9 49.2 19.95 49.2 18.78V16.64L49.55 16.47C49.76 16.37 50.03 16.11 50.2 15.83C50.5 15.36 50.5 15.35 50.5 13.88C50.5 12.58 50.47 12.34 50.3 11.99C50.06 11.52 49.44 11.05 48.94 10.96L48.58 10.89L48.67 10.47C48.9 9.28997 48.68 8.38996 47.98 7.73997C47.27 7.05997 47.21 7.04996 44.45 7.02996C43.08 7.01997 41.84 7.04996 41.7 7.08997ZM46.5 9.02996C46.8 9.17997 46.86 9.56996 46.7 10.35L46.59 10.9H42.03L41.92 10.39C41.72 9.51997 41.8 9.10997 42.2 8.96997C42.53 8.84997 46.25 8.89997 46.5 9.02996ZM48.6 14.8H40V12.9H48.6V14.8ZM47.22 22.66L47.25 28.52L47.56 28.79C47.83 29.03 47.98 29.08 48.71 29.13C50.81 29.27 52.69 30.37 53.89 32.15C54.4 32.92 54.75 33.73 54.86 34.39C54.92 34.77 54.91 34.79 54.44 35.14C53.2 36.04 51.75 36.5 50.16 36.5C48.1 36.5 46.65 35.89 44.93 34.29C43.14 32.63 41.05 31.8 38.65 31.8C37.38 31.8 36.35 32 35.2 32.45C34.74 32.64 34.34 32.78 34.33 32.76C34.25 32.68 35.27 31.36 35.75 30.92C36.92 29.85 38.27 29.26 39.93 29.11C40.7 29.04 40.86 28.99 41.08 28.76L41.35 28.5L41.38 22.65L41.4 16.8H47.2L47.22 22.66ZM53.24 22.15C53.8 22.39 54.55 23.13 54.8 23.71C55.3 24.89 54.91 26.42 53.92 27.16C53.4 27.54 52.66 27.8 52.1 27.8C50.58 27.8 49.2 26.43 49.2 24.91C49.2 22.8 51.32 21.35 53.24 22.15Z" fill="#569D32"/>
<path d="M42.19 42.17C40.4 43.94 40.04 44.44 39.75 45.55C39.08 48.13 40.85 50.76 43.56 51.22C45.92 51.61 48.3 49.96 48.82 47.57C48.96 46.88 48.87 45.67 48.61 45.01C48.28 44.19 47.95 43.78 46.23 42.07C44.1 39.97 44.4 39.97 42.19 42.17ZM46.67 45.48C47.54 47.26 46.23 49.35 44.25 49.33C42.72 49.32 41.6 48.17 41.6 46.63C41.61 45.63 41.82 45.25 43.13 43.93L44.24 42.8L45.33 43.87C46.04 44.58 46.5 45.13 46.67 45.48Z" fill="#569D32"/>
<path d="M32.08 45.07C31.53 45.42 31.45 46.06 31.89 46.51C32.4 47.02 33.19 46.88 33.46 46.24C33.58 45.95 33.58 45.85 33.47 45.57C33.39 45.4 33.26 45.19 33.17 45.12C32.91 44.9 32.38 44.88 32.08 45.07Z" fill="#569D32"/>
</g>
</g>
<defs>
<clipPath id="clip0_1191_7876">
<rect width="50" height="50" fill="white" transform="translate(7 7)"/>
</clipPath>
</defs>
</svg>
