<svg width="64" height="64" viewBox="0 0 64 64" fill="none" xmlns="http://www.w3.org/2000/svg">
<mask id="mask0_1191_7892" style="mask-type:alpha" maskUnits="userSpaceOnUse" x="0" y="0" width="64" height="64">
<rect width="64" height="64" fill="#D9D9D9"/>
</mask>
<g mask="url(#mask0_1191_7892)">
</g>
<path d="M20.4833 7.11995C19.9135 7.26988 19.1839 7.88957 18.874 8.48927L18.8546 8.52604C18.6836 8.84978 18.5942 9.21039 18.5942 9.57654V11.2079V13.3968L18.2444 13.5367C17.4048 13.8866 16.7052 14.7062 16.5052 15.5757C16.3853 16.0855 15.0959 27.5997 15.0959 28.1595C15.0959 28.6492 15.5457 29.089 16.0455 29.089C16.5952 29.089 16.955 28.6792 17.035 27.9796C17.065 27.6797 17.2249 26.2004 17.3948 24.6912C17.5647 23.182 17.8345 20.6832 17.9945 19.1439C18.1644 17.6047 18.3243 16.2254 18.3543 16.0855C18.3843 15.9455 18.5442 15.6957 18.7041 15.5358C18.8965 15.3498 19.1535 15.2459 19.421 15.2459H24.991H30.5609C30.8285 15.2459 31.0855 15.3498 31.2779 15.5358C31.4378 15.6857 31.5977 15.9155 31.6276 16.0355C31.6576 16.1454 32.0375 19.5538 32.4872 23.5917C32.927 27.6297 33.4068 31.9475 33.5367 33.1869C34.2164 39.2339 35.2858 49.2689 35.2858 49.5088V49.7787H24.991H14.6962V49.5487C14.6962 49.4288 15.006 46.4803 15.3958 43.002C16.1354 36.2954 16.1254 36.4453 15.6557 36.0655C15.1759 35.6757 14.2863 35.9855 14.1564 36.6052C14.1264 36.7251 13.9665 38.0945 13.7966 39.6337C13.6367 41.173 13.2269 44.9311 12.887 47.9796C12.4872 51.6876 12.2973 53.7367 12.3373 54.1464C12.4273 55.2259 13.077 56.1554 14.0764 56.6452C14.4513 56.8293 14.8633 56.9251 15.2809 56.9251H24.991H34.7543C35.1375 56.9251 35.5164 56.8433 35.8656 56.6852C36.5252 56.3853 37.3049 55.5557 37.5247 54.9161C37.8046 54.0865 37.8546 54.6262 36.0854 38.6342C35.7056 35.1659 35.1459 30.0685 34.836 27.2899C34.5362 24.5113 34.1964 21.4328 34.0864 20.4433C33.9765 19.4538 33.8165 17.9646 33.7366 17.1449C33.5167 15.026 33.1669 14.3363 31.9375 13.6267L31.4378 13.3368L31.3878 11.088C31.3378 8.86908 31.3378 8.84909 31.068 8.37932C30.908 8.12945 30.6182 7.77963 30.4183 7.59972C29.7086 7.02001 29.4788 7.00001 24.951 7.01001C22.6921 7.02 20.6831 7.05998 20.4833 7.11995ZM28.959 8.99901C29.4588 9.17892 29.4987 9.36882 29.4687 11.3978L29.4387 13.2469H24.991H20.5432L20.5132 11.4078C20.4833 9.4288 20.5332 9.19891 21.023 8.99901C21.3428 8.86908 28.5892 8.87907 28.959 8.99901ZM35.6756 52.8171C35.8156 54.1164 35.7256 54.5163 35.2258 54.8461C34.956 55.016 34.4662 55.026 24.991 55.026C15.5657 55.026 15.036 55.016 14.7761 54.8461C14.6362 54.7461 14.4363 54.5062 14.3463 54.3164C14.1964 53.9965 14.1964 53.8466 14.2963 52.8971C14.3663 52.3074 14.4363 51.7976 14.4663 51.7476C14.4862 51.7077 19.2438 51.6777 25.0309 51.6777H35.5557L35.6756 52.8171Z" fill="#569D32"/>
<path d="M47.7296 7.12999C47.0699 7.34988 46.7401 7.55977 46.3103 8.02954C45.9406 8.42934 45.4807 9.38886 45.4807 9.74868C45.4807 9.87862 45.021 9.8986 42.2423 9.8986H39.3886C39.1483 9.8986 38.9172 9.99175 38.7441 10.1585C38.5774 10.3316 38.4843 10.5626 38.4843 10.803V17.095V23.3673C38.4843 23.6236 38.5977 23.8668 38.7941 24.0315C38.9942 24.1994 39.2471 24.2914 39.5083 24.2914H42.2923H45.4807V39.3339V53.7498C45.4807 54.1578 45.5518 54.5626 45.6906 54.9461C46.1604 56.1755 47.2399 56.9151 48.5792 56.9151C49.9185 56.9151 50.998 56.1755 51.4678 54.9461C51.6067 54.5626 51.6777 54.1578 51.6777 53.7498V31.9875V10.2253C51.6777 9.81738 51.6067 9.41258 51.4678 9.02904C51.1879 8.2994 50.5283 7.58976 49.8486 7.2999C49.2189 7.03004 48.2794 6.95008 47.7296 7.12999ZM49.2588 9.16897C49.8086 9.5088 49.7786 8.16947 49.7586 32.1275L49.7291 53.9166C49.7288 54.1437 49.655 54.3646 49.5187 54.5463C49.069 55.156 48.0894 55.156 47.6396 54.5463C47.5034 54.3646 47.4296 54.1437 47.4293 53.9166L47.3998 32.0475L47.3802 10.2389C47.3799 9.97156 47.4599 9.71027 47.6097 9.48881C47.9795 8.93908 48.6792 8.79916 49.2588 9.16897ZM45.4608 17.065L45.4308 22.3424L42.9121 22.3724L40.3833 22.3923V21.3029V20.2135L41.8426 20.1734L42.8628 20.1525C43.1426 20.1467 43.407 20.0238 43.5917 19.8136C43.7516 19.6337 43.8816 19.3739 43.8816 19.2339C43.8816 18.9041 43.6317 18.4243 43.3918 18.2944C43.2819 18.2444 42.5622 18.1944 41.7926 18.1944H40.3833V17.095V15.9956H41.7326C43.2019 15.9956 43.5118 15.9156 43.7416 15.4858C43.9515 15.066 43.9115 14.7362 43.5917 14.3764C43.407 14.1662 43.1426 14.0433 42.8628 14.0375L41.8426 14.0165L40.3833 13.9866V12.8871V11.7977H42.932H45.4807L45.4608 17.065Z" fill="#569D32"/>
<path d="M21.7426 25.4907C21.2228 25.7506 20.8731 26.2704 20.8131 26.8901C20.7731 27.3099 20.8231 27.4898 21.2029 28.2494L21.3513 28.5461C21.543 28.9297 21.6458 29.3517 21.6517 29.7805L21.6926 32.7371L21.7311 35.5039C21.7387 36.0516 21.8654 36.5911 22.1025 37.085C22.7321 38.3943 23.9515 39.3438 25.3308 39.5937C25.6507 39.6537 26.5302 39.6837 27.2899 39.6637C28.5692 39.6337 28.6791 39.6137 29.059 39.3638C29.8885 38.8241 30.0384 37.8646 29.4788 36.7851L29.2715 36.3889C29.1843 36.2223 29.1375 36.0374 29.135 35.8494L29.089 32.4873C29.039 28.9491 29.029 28.8191 28.7991 28.2394C28.3793 27.1799 27.7296 26.4103 26.7801 25.8606C26.0405 25.4208 25.3008 25.2909 23.6417 25.2909C22.3423 25.2909 22.0924 25.3209 21.7426 25.4907ZM25.7706 27.5297C26.2704 27.8096 26.5902 28.1395 26.9001 28.6892C27.01 28.8891 27.05 29.7186 27.0899 32.5872L27.1499 36.1605L27.4198 36.945C27.5697 37.3348 27.6896 37.6946 27.6896 37.7347C27.6896 37.7746 27.1999 37.7946 26.6102 37.7647C25.3408 37.7147 24.7911 37.5048 24.2513 36.8651C23.6216 36.1354 23.5917 35.9156 23.5917 32.3473C23.5917 28.959 23.5417 28.5392 23.1019 27.6796C22.982 27.4598 22.892 27.2599 22.892 27.2299C22.892 27.1899 23.4218 27.1899 24.0714 27.2099C25.1409 27.2399 25.2908 27.2699 25.7706 27.5297Z" fill="#569D32"/>
<path d="M15.0759 31.6576C14.5562 31.9874 14.4563 32.5972 14.8461 33.0669C15.1659 33.4467 15.4957 33.5267 15.9455 33.3468C16.4353 33.1369 16.6552 32.6272 16.4653 32.1574C16.3853 31.9874 16.2554 31.7775 16.1654 31.7076C15.9055 31.4877 15.3758 31.4677 15.0759 31.6576Z" fill="#569D32"/>
</svg>
