<svg width="64" height="64" viewBox="0 0 64 64" fill="none" xmlns="http://www.w3.org/2000/svg">
<mask id="mask0_1191_7881" style="mask-type:alpha" maskUnits="userSpaceOnUse" x="0" y="0" width="64" height="64">
<rect width="64" height="64" fill="#D9D9D9"/>
</mask>
<g mask="url(#mask0_1191_7881)">
</g>
<g clip-path="url(#clip0_1191_7881)">
<path d="M32.55 8.94003C32.16 9.11003 32 9.31002 31.93 9.74002C31.88 10.05 31.92 10.14 32.21 10.43C32.54 10.76 32.59 10.77 33.55 10.84C34.1 10.88 34.96 10.99 35.45 11.08L36.35 11.25L35.85 11.44C33.26 12.42 30.87 14.37 29.52 16.62C29.26 17.05 29.01 17.39 28.97 17.4C28.93 17.4 28.59 17.16 28.22 16.86C26.47 15.45 23.87 14.2 22.17 13.95C21.91 13.91 21.68 13.84 21.65 13.8C21.59 13.71 23.22 12.81 24.1 12.44C24.46 12.29 24.87 12.04 25.03 11.88C25.58 11.31 25.26 10.44 24.45 10.34C24.1 10.29 23.86 10.38 22.45 11.09C20.12 12.27 18.68 13.31 16.79 15.2L15.23 16.76L14.66 16.79C12.16 16.9 10 18.74 9.34 21.3C9.12 22.16 8.91 22.57 8.3 23.26C7.48 24.2 7 25.43 7 26.58C7 27.46 7.29 28.29 8.1 29.85L8.9 31.37L8.68 31.86C8.12 33.12 8.52 36.21 9.68 39.5C10.47 41.76 12.18 44.74 13.79 46.64C17.32 50.82 22.24 53.73 27.41 54.69C29.12 55.01 29.19 55.02 30.64 55.09C35.81 55.37 40.73 54.06 45 51.26C49.72 48.17 53.29 43.31 54.78 37.95C55.56 35.18 55.75 32.96 55.32 31.91L55.09 31.38L55.9 29.85C56.72 28.29 57 27.46 57 26.58C57 25.43 56.52 24.2 55.7 23.26C55.08 22.55 54.89 22.18 54.61 21.17C54.36 20.25 54.12 19.75 53.58 19.03C52.61 17.75 50.91 16.86 49.3 16.79L48.75 16.77L47.61 15.58C46.99 14.93 46.15 14.12 45.74 13.79C42.52 11.16 38.65 9.48003 34.7 9.01003C33.11 8.82003 32.85 8.81002 32.55 8.94003ZM41.17 13.06C42.75 13.89 44.17 14.94 45.7 16.39L46.45 17.1L45.55 17.55C44.52 18.06 43.53 18.85 42.95 19.61C42.21 20.58 41.67 21.11 41.06 21.44C40.3 21.86 39.83 21.97 38.45 22.05C36.3 22.18 34.47 22.71 32.9 23.66L32 24.2L31.17 23.71C30.72 23.44 30.15 23.14 29.91 23.04L29.48 22.87L29.55 22.21C29.8 19.7 30.93 17.45 32.85 15.61C34.39 14.14 36.05 13.26 38.05 12.84C39.76 12.49 40.13 12.51 41.17 13.06ZM21 15.7C23.33 16.07 25.7 17.21 27.53 18.82L28.18 19.39L27.99 20.06C27.89 20.42 27.75 21.08 27.69 21.52C27.57 22.25 27.55 22.31 27.36 22.26C27.24 22.23 26.59 22.15 25.9 22.1C24.18 21.96 23.58 21.83 22.92 21.43C22.23 21.01 21.9 20.71 21.39 20.03C20.51 18.85 19.47 17.99 18.19 17.41L17.55 17.11L18.33 16.36L19.1 15.6H19.73C20.07 15.6 20.64 15.65 21 15.7ZM16.44 18.85C17.17 19.04 18.24 19.6 18.79 20.07C19.02 20.26 19.5 20.79 19.86 21.23C20.68 22.26 21.33 22.8 22.35 23.31C23.27 23.76 24.25 24 25.26 24C26.63 24 28.34 24.42 29.65 25.07C30.51 25.5 32.37 26.79 33.1 27.47C33.95 28.26 34.96 29.58 35.5 30.61C36.06 31.69 36.57 33.3 36.72 34.42L36.84 35.38L36.23 36.04C34.52 37.86 33.18 39.94 32.35 42.05C32.2 42.43 32.05 42.79 32 42.83C31.96 42.87 31.83 42.63 31.7 42.28C31.58 41.93 31.21 41.12 30.88 40.47L30.28 39.29L30.54 38.6C31.44 36.15 31.6 33.53 31 31.13C30.72 30.05 30.25 29.7 29.54 30.04C28.97 30.31 28.93 30.54 29.19 31.89C29.39 32.88 29.42 33.29 29.38 34.46C29.33 35.81 29.07 37.35 28.9 37.28C28.86 37.26 28.54 36.93 28.19 36.55C27.84 36.16 27.35 35.68 27.1 35.47C26.6 35.05 25.64 34.56 25.1 34.45C24.91 34.41 24.61 34.32 24.43 34.25L24.11 34.12L24.36 33.39C24.93 31.7 25.04 29.79 24.65 28.1C24.42 27.11 24.08 26.75 23.47 26.83C23 26.89 22.6 27.26 22.6 27.63C22.6 27.75 22.67 28.17 22.75 28.55C23.01 29.81 22.88 32.09 22.5 32.7C22.39 32.88 22.19 32.71 21.41 31.75C19.89 29.87 19.08 27.86 18.93 25.56C18.87 24.64 18.84 24.53 18.59 24.28C18.2 23.88 17.69 23.9 17.28 24.31L16.97 24.61L17.03 25.78C17.19 28.78 18.38 31.44 20.63 33.77L21.52 34.69L21.16 34.76C20.21 34.93 18.86 34.45 18.14 33.69C17.92 33.45 17.32 32.69 16.82 32C16.32 31.31 15.72 30.56 15.48 30.33C14.38 29.27 12.73 28.92 11.25 29.46C10.87 29.59 10.48 29.73 10.4 29.76C10.2 29.82 9.13 27.75 9.01 27.05C8.84 26.11 9.12 25.25 9.89 24.37C10.58 23.58 10.85 23.1 11.14 22.08C11.28 21.6 11.48 21.03 11.6 20.8C12.03 19.96 13.01 19.13 13.93 18.85C14.51 18.66 15.74 18.67 16.44 18.85ZM50.52 19.04C51.26 19.39 51.99 20.05 52.33 20.68C52.48 20.95 52.71 21.58 52.86 22.06C53.15 23.08 53.43 23.6 54.06 24.31C54.86 25.21 55.16 26.11 54.99 27.05C54.87 27.74 53.8 29.82 53.6 29.76C53.52 29.74 53.14 29.6 52.75 29.46C51.82 29.12 50.9 29.11 49.97 29.44C48.88 29.83 48.37 30.29 47.1 32.04C46.48 32.9 45.81 33.75 45.62 33.92C44.9 34.55 43.68 34.91 42.84 34.76L42.48 34.69L43.37 33.77C44.43 32.67 45.05 31.82 45.65 30.64C46.47 29.03 47 26.95 47 25.32C47 24.64 46.98 24.56 46.71 24.29C46.31 23.9 45.8 23.89 45.41 24.28C45.16 24.53 45.13 24.64 45.07 25.56C44.93 27.71 44.05 29.99 42.77 31.55L42.52 31.85L42.4 31.45C42.19 30.74 42.16 29.01 42.34 28.18C42.53 27.33 42.47 27.05 42.04 26.71C41.68 26.43 41.28 26.44 40.92 26.75C40.68 26.95 40.58 27.16 40.46 27.68C40.09 29.34 40.17 30.82 40.71 32.44C41.05 33.45 41.1 33.31 40.09 33.94C39.78 34.13 39.35 34.33 39.12 34.38C38.65 34.49 38.66 34.5 38.55 33.6C38.36 32.11 37.35 29.64 36.34 28.23C36.08 27.86 35.39 27.07 34.82 26.48L33.78 25.41L34.11 25.2C34.59 24.91 35.89 24.42 36.67 24.24C37.04 24.16 37.95 24.05 38.7 24C40.21 23.9 40.83 23.75 41.85 23.22C42.54 22.86 42.95 22.49 44.85 20.48C46.03 19.23 47.34 18.68 49 18.73C49.79 18.76 50.05 18.81 50.52 19.04ZM13.69 31.39C14.13 31.62 14.15 31.65 15.65 33.67C17.03 35.54 17.81 36.16 19.31 36.55C20.12 36.77 21.73 36.71 22.4 36.45C22.7 36.33 23.14 36.27 23.7 36.26C24.47 36.25 24.62 36.28 25.23 36.58C27.01 37.46 29.51 41.23 30.34 44.31C30.84 46.15 30.92 46.81 30.97 49.62L31.02 52.28L30.61 52.14C30.06 51.95 28.88 51.36 28.25 50.95C27.68 50.59 26.4 49.51 26.4 49.4C26.4 49.36 26.65 48.95 26.96 48.49C27.95 47.02 28.55 45.39 28.66 43.84C28.73 43.01 28.73 43.01 28.42 42.71C28.01 42.3 27.5 42.28 27.11 42.67C26.88 42.9 26.81 43.12 26.67 43.97C26.58 44.53 26.37 45.34 26.2 45.77C25.85 46.69 25.29 47.65 25.11 47.65C24.75 47.65 23.62 44.85 23.39 43.4C23.28 42.68 23.32 40.41 23.46 39.28C23.51 38.85 23.49 38.78 23.22 38.5C22.81 38.09 22.3 38.09 21.9 38.48C21.51 38.87 21.35 39.85 21.35 41.81V43.37L21.1 43.26C20.5 43 19.39 42.26 18.68 41.66C17.49 40.65 16.48 39.36 15.77 37.95C15.33 37.06 15.1 36.85 14.58 36.85C14.25 36.85 14.13 36.91 13.89 37.18C13.73 37.36 13.6 37.61 13.6 37.75C13.6 38.11 14.52 39.84 15.2 40.74C16.73 42.79 18.58 44.28 20.88 45.3L21.93 45.78L22.3 46.62C23.3 48.94 24.77 50.82 26.72 52.26C27.42 52.78 27.43 52.78 25.72 52.28C19.9 50.59 14.97 46.38 12.35 40.87C10.89 37.8 9.96 33.47 10.53 32.43C11.16 31.27 12.55 30.81 13.69 31.39ZM51.95 31.21C52.74 31.41 53.47 32.22 53.63 33.08C53.78 33.82 53.24 36.57 52.58 38.48C51.45 41.78 49.84 44.37 47.41 46.81C44.78 49.44 41.96 51.14 38.4 52.23C36.58 52.79 36.57 52.79 37.47 52.11C39.35 50.69 41.03 48.45 41.85 46.26C41.98 45.93 42.12 45.75 42.29 45.67C43.34 45.24 44.51 44.64 45.26 44.14C46.37 43.4 47.92 41.92 48.76 40.8C49.47 39.85 50.4 38.12 50.4 37.75C50.4 37.61 50.27 37.36 50.11 37.18C49.87 36.91 49.75 36.85 49.42 36.85C48.9 36.85 48.67 37.06 48.23 37.94C47.2 39.98 45.68 41.63 43.8 42.76C43.44 42.98 43.04 43.2 42.9 43.26L42.65 43.37V41.81C42.65 39.85 42.49 38.87 42.1 38.48C41.7 38.09 41.19 38.09 40.78 38.5C40.51 38.78 40.49 38.85 40.54 39.28C40.69 40.54 40.72 42.64 40.6 43.37C40.39 44.73 39.62 46.78 39.05 47.54C38.86 47.78 38.77 47.7 38.34 46.93C37.84 46.04 37.44 44.87 37.3 43.82C37.19 43.1 37.13 42.91 36.89 42.68C36.5 42.28 35.99 42.29 35.58 42.71C35.27 43.01 35.27 43.01 35.34 43.84C35.45 45.4 36.05 47.03 37.04 48.5C37.46 49.12 37.59 49.39 37.52 49.5C37.15 50.1 34.63 51.72 33.41 52.13L32.98 52.28L33.03 49.47C33.08 46.33 33.18 45.62 33.84 43.66C34.31 42.26 34.74 41.35 35.48 40.17C36.62 38.35 37.9 36.97 38.84 36.54C39.68 36.16 40.38 36.13 41.52 36.44C42.75 36.77 43.88 36.79 44.86 36.49C46.22 36.08 47.02 35.45 48.16 33.89C49.86 31.57 49.91 31.51 50.68 31.24C51.14 31.08 51.39 31.07 51.95 31.21Z" fill="#569D32"/>
<path d="M28.15 9.18999C27.79 9.34999 27.55 9.69999 27.55 10.1C27.55 10.54 27.73 10.78 28.18 10.97C28.45 11.08 28.55 11.08 28.83 10.97C29.28 10.78 29.45 10.54 29.45 10.09C29.45 9.43999 28.73 8.93999 28.15 9.18999Z" fill="#569D32"/>
</g>
<defs>
<clipPath id="clip0_1191_7881">
<rect width="50" height="50" fill="white" transform="translate(7 7)"/>
</clipPath>
</defs>
</svg>
