<svg width="66" height="64" viewBox="0 0 66 64" fill="none" xmlns="http://www.w3.org/2000/svg">
<mask id="mask0_1191_7895" style="mask-type:alpha" maskUnits="userSpaceOnUse" x="0" y="0" width="64" height="64">
<rect width="64" height="64" fill="#D9D9D9"/>
</mask>
<g mask="url(#mask0_1191_7895)">
</g>
<path d="M38.5037 2.11993C38.4078 2.1799 37.3163 3.21139 36.069 4.42278L33.8021 6.61768L21.1844 6.67766L9.15303 6.73489C8.7761 6.73668 8.40557 6.83244 8.07496 7.01348C7.30734 7.42129 6.74362 7.97301 6.3838 8.64467C5.91603 9.54422 5.92803 10.7796 6.40779 11.7511C6.74362 12.4348 7.60719 13.2743 8.15891 13.4542C8.39879 13.5262 8.39879 13.6462 8.39879 21.5502V29.0769C8.39879 29.3846 8.53492 29.6764 8.7706 29.8741C9.28635 30.3059 9.86206 30.2938 10.3298 29.8381C10.5525 29.6154 10.6777 29.3133 10.6777 28.9984V21.6222V13.7541H25.91H41.1424V19.931V26.1079H36.7766H32.4227L31.5952 25.5682C29.988 24.5007 27.985 23.9371 25.91 23.9371C19.8771 23.9371 15.1634 28.8905 15.5112 34.8995C15.5952 36.3988 15.835 37.3703 16.4467 38.6897C18.1739 42.4198 21.7481 44.7226 25.8501 44.7347C26.6417 44.7347 27.5292 44.6747 27.8171 44.6027C28.117 44.5307 28.4048 44.4947 28.4528 44.5307C28.5007 44.5667 28.5487 46.9055 28.5487 49.7481V54.8935H19.6132H10.6777V47.0255V39.6493C10.6777 39.3344 10.5525 39.0323 10.3298 38.8096C9.83807 38.3299 9.23837 38.3299 8.74662 38.8096C8.52391 39.0323 8.39879 39.3344 8.39879 39.6493V47.1455C8.39879 55.0015 8.39879 55.1214 8.15891 55.1934C8.02698 55.2294 7.65516 55.4812 7.33132 55.7331C6.73163 56.2129 6.11993 57.2204 6.11993 57.7361C6.11993 58 6.15591 58.012 7.21139 58.012C8.25487 58.012 8.32683 58 8.72263 57.6522L9.13042 57.2924H17.6941H26.2698V57.6522V58.012H27.3613C28.4048 58.012 28.4768 58 28.8726 57.6522L29.2803 57.2924L46.1199 57.3163L62.9715 57.3523V44.0389V30.7256L46.1199 30.7616L29.2684 30.7856L28.9205 30.4618C28.3928 29.97 28.3688 29.3103 28.8605 28.8186L29.1844 28.5068H46.072H62.9715V27.3073V26.1079H59.8291H56.6746L58.018 24.7526C58.7496 24.021 59.4093 23.2894 59.4812 23.1455C59.913 22.2938 59.1214 21.2623 58.2099 21.4903C57.994 21.5382 57.0344 22.4018 55.5952 23.8411L53.3044 26.1079H48.3628H43.4213V19.8231C43.4213 13.6462 43.4213 13.5262 43.6612 13.4542C44.1529 13.2983 45.0524 12.4588 45.4003 11.8231C45.7122 11.2593 45.7481 11.0555 45.7601 10.2159C45.7601 9.44827 45.7001 9.16042 45.4842 8.75262C45.0884 7.985 44.5367 7.42129 43.8531 7.06147C43.2414 6.73763 43.2414 6.73763 40.1949 6.70165L37.1484 6.66566L38.6117 5.1904C40.039 3.73912 40.063 3.71514 40.063 3.16341C40.063 2.70764 40.003 2.57571 39.6911 2.31184C39.3193 2 38.8275 1.91603 38.5037 2.11993ZM43.1215 9.3883C43.6491 9.95202 43.5052 10.9235 42.8575 11.2234C42.6537 11.3193 37.8441 11.3553 25.8501 11.3553H9.60192C9.29178 11.3553 8.99373 11.235 8.7706 11.0195C8.25487 10.5517 8.21888 9.84407 8.69864 9.37631C8.88254 9.18475 9.1366 9.07646 9.40215 9.07646H25.91H42.4092C42.6797 9.07646 42.938 9.18952 43.1215 9.3883ZM27.4693 26.3598L28.0929 26.4918L27.7451 26.7077C27.3133 26.9595 26.8216 27.5472 26.4738 28.1949C26.102 28.9026 26.102 30.4018 26.4857 31.1094C26.8696 31.841 27.3853 32.3928 28.009 32.7167L28.5487 33.0045L28.5247 37.5023L28.4887 42L28.009 42.1679C27.2054 42.4438 25.2384 42.4798 24.1829 42.2398C23.0795 42 21.6641 41.3043 20.7286 40.5607C19.985 39.961 19.0974 38.8575 18.6416 37.958C17.5622 35.835 17.5622 32.8126 18.6416 30.6896C19.6612 28.6867 21.7001 27.0435 23.895 26.4678C24.8905 26.2039 26.5338 26.1559 27.4693 26.3598ZM61.2924 44.0389V54.8935H46.0599H30.8276V44.0389V33.1844H46.0599H61.2924V44.0389Z" fill="#569D32"/>
<path d="M46.7436 37.3823C44.069 37.8621 41.5383 39.3613 39.979 41.3763L39.7151 41.7241L38.9955 40.9445C37.7481 39.6131 35.6132 38.3658 34.8456 38.5098C34.6297 38.5577 34.3298 38.7256 34.1739 38.8935C33.9889 39.094 33.886 39.3569 33.886 39.6298V44.0629V48.3936C33.886 48.7286 34.0302 49.0473 34.2818 49.2684C34.8216 49.7481 35.1814 49.7121 36.4887 49.0525C37.3763 48.5967 37.8201 48.2609 38.6476 47.4572L39.6911 46.4258L40.5427 47.3613C42.6416 49.6521 45.6881 50.9235 48.7586 50.7796C51.1934 50.6717 53.0885 49.988 54.9595 48.5727C56.4947 47.4093 58.1739 45.0345 58.1739 44.0389C58.1739 43.0795 56.6386 40.8605 55.1395 39.6731C54.1679 38.8815 52.2369 37.922 51.0375 37.6102C49.958 37.3343 47.6791 37.2144 46.7436 37.3823ZM49.2983 39.6612C49.8621 39.7331 50.5937 39.8771 50.9175 39.985C52.5727 40.5007 54.3958 41.88 55.3073 43.3073C55.7631 43.991 55.7631 44.015 55.5712 44.3868C54.9715 45.5742 53.4843 46.9295 51.997 47.6371C50.5937 48.3088 49.874 48.4768 48.3389 48.4768C46.8875 48.4647 45.8321 48.2009 44.4407 47.4812C43.4692 46.9775 41.6822 45.2983 41.2864 44.4947L41.0224 44.0029L41.5142 43.2713C42.8096 41.3403 45.0165 39.973 47.3193 39.6731C47.7871 39.6252 48.1829 39.5652 48.2189 39.5532C48.2548 39.5532 48.7466 39.6012 49.2983 39.6612ZM37.5562 42.8036C38.2878 43.7031 38.4198 43.979 38.2878 44.2669C38.0959 44.6987 37.2324 45.7181 36.7167 46.1259L36.2249 46.5217V44.0389V41.5562L36.6926 41.928C36.9445 42.1319 37.3403 42.5277 37.5562 42.8036Z" fill="#569D32"/>
<path d="M50.9655 43.2473C50.7137 43.5112 50.6177 43.7151 50.6177 44.0389C50.6177 44.6506 51.1454 45.1784 51.7571 45.1784C52.3688 45.1784 52.8965 44.6506 52.8965 44.0389C52.8965 43.4272 52.3688 42.8995 51.7571 42.8995C51.4333 42.8995 51.2294 42.9954 50.9655 43.2473Z" fill="#569D32"/>
<path d="M8.7466 33.5323C8.26684 34.024 8.26684 34.6238 8.7466 35.1155C9.23835 35.6073 9.83806 35.5953 10.3418 35.1035C10.6656 34.7797 10.7016 34.6717 10.6417 34.228C10.5097 33.2324 9.44226 32.8486 8.7466 33.5323Z" fill="#569D32"/>
</svg>
