<svg width="64" height="64" viewBox="0 0 64 64" fill="none" xmlns="http://www.w3.org/2000/svg">
<mask id="mask0_1191_7890" style="mask-type:alpha" maskUnits="userSpaceOnUse" x="0" y="0" width="64" height="64">
<rect width="64" height="64" fill="#D9D9D9"/>
</mask>
<g mask="url(#mask0_1191_7890)">
</g>
<g clip-path="url(#clip0_1191_7890)">
<path d="M30.8881 7.44978C29.2288 8.32933 27.6297 9.75862 26.6202 11.2779C26.2004 11.8975 26.0205 12.0975 25.9005 12.0475C23.7716 11.2079 21.5028 10.928 19.4038 11.2379C18.0744 11.4378 16.5052 11.9075 16.2554 12.1874C16.0354 12.4273 15.5657 13.8966 15.3858 14.9061C15.1759 16.0855 15.2259 18.3443 15.4957 19.5437C16.5952 24.4413 19.9735 27.9496 24.8711 29.2588C25.7606 29.5088 26.0005 29.5287 27.8396 29.5287C29.7187 29.5287 29.8986 29.5088 30.8381 29.2489C31.3878 29.089 31.9076 28.969 31.9875 28.969C32.0675 28.969 32.5872 29.089 33.1369 29.2389C34.8761 29.6987 37.3248 29.6987 39.2339 29.2289C40.2234 28.979 41.6127 28.4093 42.4923 27.8896C45.6407 25.9905 47.6597 23.1819 48.4792 19.5437C48.7791 18.2444 48.7991 15.8756 48.5392 14.6462C48.2893 13.5067 47.9196 12.4173 47.7196 12.1874C47.4698 11.9075 45.8905 11.4378 44.5712 11.2379C42.4723 10.928 40.2034 11.2079 38.0744 12.0475C37.9545 12.0975 37.7746 11.8975 37.3448 11.2579C36.6951 10.2784 35.6456 9.1889 34.6362 8.41929C33.8066 7.7996 32.3073 7 31.9675 7C31.8476 7.00999 31.3578 7.2099 30.8881 7.44978ZM32.8971 9.57871C35.026 10.978 36.6052 13.2069 37.1849 15.6157C38.0645 19.2839 36.7151 23.2618 33.8066 25.6007L33.0369 26.2204L32.987 23.1319C32.957 21.4328 32.8971 19.9635 32.8471 19.8636C32.7471 19.6537 32.2774 19.3938 31.9875 19.3938C31.6177 19.3938 31.2179 19.6737 31.098 20.0035C31.028 20.2134 30.988 21.3728 30.988 23.2618V26.2004L30.5182 25.8705C29.8286 25.4008 28.7891 24.3214 28.2693 23.5217C26.6002 21.003 26.1104 18.2843 26.83 15.4758C27.4897 12.8771 29.1389 10.7381 31.6377 9.22888C31.9675 9.02899 32.1274 9.07896 32.8971 9.57871ZM22.0725 13.0969C23.0519 13.1969 24.3013 13.4868 24.911 13.7366L25.2708 13.8866L25.0909 14.4663C24.0315 17.8846 24.6812 21.8326 26.7701 24.7911C27.3199 25.5507 28.4093 26.7202 28.979 27.14C29.1989 27.2998 29.3888 27.4698 29.3888 27.4998C29.3888 27.6397 27.6097 27.6996 26.7301 27.5997C22.2723 27.08 18.6741 24.0015 17.5148 19.7037C17.2848 18.8441 17.2549 18.5542 17.2549 16.995C17.2449 15.4558 17.2749 15.146 17.4848 14.4263L17.7146 13.5967L18.1944 13.4568C18.6441 13.3268 19.7436 13.1369 20.4932 13.067C20.6831 13.047 20.913 13.027 20.993 13.017C21.0729 13.007 21.5627 13.047 22.0725 13.0969ZM44.6812 13.2069C44.981 13.2669 45.4608 13.3768 45.7406 13.4568L46.2603 13.5967L46.4902 14.4163C46.7001 15.146 46.7301 15.4657 46.7301 16.995C46.7301 18.5942 46.7001 18.8241 46.4503 19.7436C45.3908 23.5617 42.4923 26.3803 38.6342 27.3499C37.7046 27.5797 37.3148 27.6197 36.1154 27.6297C35.3358 27.6297 34.6662 27.5997 34.6261 27.5597C34.5862 27.5197 34.6861 27.3898 34.8461 27.2798C35.3958 26.86 36.7451 25.4408 37.2049 24.7911C39.3038 21.8026 39.9435 17.8746 38.884 14.4663L38.7041 13.8766L39.024 13.7466C39.5637 13.5167 40.973 13.1869 41.7726 13.0969C42.6122 13.007 43.8315 13.057 44.6812 13.2069Z" fill="#569D32"/>
<path d="M51.9076 31.7276C51.6777 31.7976 51.3179 31.9675 51.108 32.0874C50.8981 32.2174 48.9391 34.0964 46.7401 36.2753L42.7622 40.2333L42.8121 39.7136C43.002 37.9945 42.0825 36.3453 40.5133 35.5657C40.0658 35.3485 39.5755 35.234 39.0781 35.2305L35.6157 35.2059L31.3878 35.1759L30.7082 34.6662C29.9385 34.0764 28.7292 33.4867 27.7896 33.2368C26.8001 32.977 24.7311 32.927 23.4718 33.1369C21.113 33.5267 18.944 34.4962 17.2449 35.9255C16.9151 36.2054 15.9955 37.0549 15.2159 37.8345C14.1165 38.904 13.7266 39.2239 13.5667 39.2039C12.9071 39.0939 12.0275 39.1539 11.6977 39.3238C11.2379 39.5637 7.64968 43.1119 7.33984 43.6416C7.02999 44.1714 6.94004 44.851 7.09996 45.4507C7.2099 45.8605 7.4198 46.1204 8.48926 47.1999C9.66867 48.3993 9.77862 48.4792 10.1284 48.4792C10.6582 48.4792 11.098 48.0494 11.098 47.5297C11.098 47.1898 10.998 47.05 9.99851 46.0305C9.39881 45.4108 8.89906 44.871 8.89906 44.821C8.89906 44.7811 9.71865 43.9215 10.7181 42.912C11.8976 41.7326 12.6172 41.0829 12.7471 41.0829C13.027 41.0829 22.8921 50.948 22.8921 51.2279C22.8921 51.4977 19.4138 54.976 19.1439 54.976C19.034 54.976 18.4843 54.5062 17.8246 53.8665L16.6951 52.7471L16.2754 52.8071C15.7257 52.877 15.3958 53.2368 15.3958 53.7566C15.3958 54.0964 15.4957 54.2264 16.7152 55.4357C17.8546 56.5552 18.1145 56.7651 18.5242 56.875C19.1239 57.035 19.8036 56.945 20.3334 56.6351C20.8631 56.3253 24.4113 52.7371 24.6512 52.2773C24.8211 51.9475 24.911 50.848 24.7911 50.4882C24.7611 50.3883 24.8911 50.2683 25.1409 50.1384C25.5307 49.9285 25.7107 49.9285 33.4867 49.8686L40.5245 49.8243C41.1272 49.8205 41.7267 49.735 42.3065 49.5703L42.3823 49.5487C43.6217 49.1889 45.131 48.4492 46.1304 47.6996C46.6102 47.3398 48.8291 45.2009 51.6377 42.3723C56.6052 37.3748 56.6352 37.3348 56.8851 36.1654C57.2449 34.5062 56.2854 32.6471 54.6762 31.9075C54.0065 31.5976 52.5972 31.4977 51.9076 31.7276ZM53.9565 33.7466C54.9661 34.2464 55.3158 35.4458 54.7461 36.4053C54.4363 36.925 45.7607 45.5707 44.961 46.1604C43.7116 47.08 42.1125 47.7096 40.5932 47.8795C40.1035 47.9395 36.6652 47.9795 32.6272 47.9795C24.8511 47.9795 25.031 47.9695 23.9316 48.5792L23.4218 48.859L19.3038 44.7411L15.1959 40.6332L16.8651 38.964C19.1839 36.6651 20.5133 35.8356 22.8721 35.2159C23.6816 34.996 24.0715 34.956 25.2909 34.946C26.5403 34.936 26.8401 34.966 27.4897 35.1659C28.3694 35.4357 29.3388 35.9855 30.0285 36.5952L30.5283 37.035L34.926 37.0849C39.2339 37.1349 39.3439 37.1449 39.7436 37.3548C41.2429 38.1544 41.2629 40.3133 39.7836 41.053L39.3439 41.2828H33.6367C29.9485 41.2828 27.8096 41.3228 27.5598 41.3928C26.8101 41.5927 26.5902 42.4323 27.14 42.982C27.3 43.142 27.5168 43.2324 27.7432 43.2334L34.2064 43.2618C38.5643 43.2719 41.2129 43.2518 41.5727 43.1819C42.8121 42.952 42.9121 42.872 47.6297 38.1744C50.3583 35.4657 52.1574 33.7366 52.3773 33.6467C52.887 33.4267 53.3769 33.4567 53.9565 33.7466Z" fill="#569D32"/>
<path d="M12.8371 49.7686C12.2474 50.0185 12.1174 50.818 12.5872 51.2878C13.4368 52.1274 14.7562 50.928 13.9765 50.0285C13.7266 49.7486 13.1869 49.6287 12.8371 49.7686Z" fill="#569D32"/>
</g>
<defs>
<clipPath id="clip0_1191_7890">
<rect width="50" height="50" fill="white" transform="translate(7 7)"/>
</clipPath>
</defs>
</svg>
