<svg width="130" height="50" viewBox="0 0 130 50" fill="none" xmlns="http://www.w3.org/2000/svg">
<mask id="mask0_1062_9357" style="mask-type:alpha" maskUnits="userSpaceOnUse" x="0" y="0" width="130" height="50">
<rect width="130" height="50" fill="white"/>
</mask>
<g mask="url(#mask0_1062_9357)">
<path fill-rule="evenodd" clip-rule="evenodd" d="M98.4669 11.418C98.4669 10.5247 97.6734 9.73047 96.6803 9.73047H94.1977C93.2047 9.73047 92.4104 10.5247 92.4104 11.418L92.5102 38.0304C92.5102 38.9237 93.2047 39.7179 94.1977 39.7179H96.6803C97.6734 39.7179 98.4669 38.9237 98.4669 38.0304V11.418Z" fill="#005695"/>
<path fill-rule="evenodd" clip-rule="evenodd" d="M101.645 12.2124V13.4042C101.645 13.9989 102.043 14.3965 102.638 14.3965H120.114C120.909 14.3965 121.603 13.7027 121.603 12.9084V10.8218C121.603 10.0276 120.909 9.2333 120.114 9.33383C120.114 9.33383 103.233 11.0214 102.638 11.1204C102.042 11.1204 101.645 11.6161 101.645 12.2124Z" fill="#005695"/>
<path fill-rule="evenodd" clip-rule="evenodd" d="M87.4452 39.7187C83.0763 39.7187 80.395 36.4418 80.395 32.7682V22.1426H79.1034C78.5079 22.1426 77.9116 21.5463 77.9116 20.9508V19.1627C77.9116 18.469 78.5071 17.971 79.1034 17.971H80.395V11.418C80.395 10.5247 81.0895 9.73047 82.0825 9.73047H84.5651C85.4584 9.73047 86.1537 10.5247 86.1537 11.418V17.971H90.026C90.7213 17.971 91.2178 18.4682 91.2178 19.1627V20.9508C91.2178 21.5456 90.7221 22.1426 90.026 22.1426H86.1537V31.974C86.1537 33.8595 87.3455 35.2508 89.4305 35.2508H89.828C90.5233 35.2508 91.1196 35.7466 91.1196 36.5416V38.4287C91.1196 39.1239 90.5241 39.7195 89.828 39.7195H87.4452V39.7187Z" fill="#005695"/>
<path fill-rule="evenodd" clip-rule="evenodd" d="M57.6559 28.4976C57.6559 22.8379 54.28 17.1782 46.6335 17.1782C39.5832 17.1782 35.7108 22.7374 35.7108 28.4976C35.7108 34.653 39.881 40.1155 46.7325 40.1155C51.3999 40.1155 55.9676 37.7326 56.8608 33.6615C56.9598 33.1658 56.5631 32.3707 55.8678 32.3707H52.4919C51.8964 32.3707 51.3999 32.6677 51.1014 33.165C50.1083 34.5548 48.7185 35.2501 46.7325 35.2501C43.7534 35.2501 41.7673 32.9655 41.5685 30.3847H55.768C57.0604 30.3847 57.6559 29.6894 57.6559 28.4976ZM41.6683 26.1148C41.8671 23.6329 44.0511 21.7459 46.6335 21.7459C49.3148 21.7459 51.4989 23.6329 51.7974 26.1148H41.6683Z" fill="#005695"/>
<path fill-rule="evenodd" clip-rule="evenodd" d="M122.2 28.4976C122.2 22.8379 118.824 17.1782 111.178 17.1782C104.127 17.1782 100.256 22.7374 100.256 28.4976C100.256 34.653 104.427 40.1155 111.277 40.1155C115.945 40.1155 120.512 37.7326 121.406 33.6615C121.505 33.1658 121.107 32.3707 120.413 32.3707H117.037C116.441 32.3707 115.945 32.6677 115.646 33.165C114.653 34.5548 113.263 35.2501 111.178 35.2501C108.298 35.2501 106.312 32.9655 106.113 30.3847H120.314C121.604 30.3847 122.2 29.6894 122.2 28.4976ZM106.213 26.1148C106.411 23.6329 108.595 21.7459 111.178 21.7459C113.859 21.7459 116.044 23.6329 116.243 26.1148H106.213Z" fill="#005695"/>
<path fill-rule="evenodd" clip-rule="evenodd" d="M75.6286 10.027H29.7525C28.6604 10.027 27.8662 10.9218 27.8662 11.9141L27.9651 29.9874C27.9651 29.9874 18.1345 12.1136 17.638 11.2188C17.1423 10.3255 16.0495 9.53125 14.6597 9.53125H10.8863C9.79428 9.53125 9 10.4261 9 11.4183V37.8312C9 38.924 9.79428 39.7182 10.8863 39.7182H13.2691C14.3612 39.7182 15.1562 38.924 15.1562 37.8312L15.0572 19.3626C15.0572 19.3626 24.9868 37.3354 25.4833 38.0307C25.9798 39.023 26.9729 39.7182 28.3627 39.7182H31.8383C32.9303 39.7182 33.7246 38.924 33.7246 37.8312V14.4972H75.6286C76.3231 14.4972 76.9194 13.9009 76.9194 13.2064V11.3193C76.9194 10.6233 76.3239 10.027 75.6286 10.027Z" fill="#005695"/>
<path fill-rule="evenodd" clip-rule="evenodd" d="M68.1808 21.5444C70.1668 21.5444 71.6564 22.2397 72.2527 23.5305C72.4514 24.1267 72.9472 24.2257 73.6432 24.2257H76.4236C76.8211 24.2257 77.4166 23.8282 77.4166 23.2335C77.4166 20.0556 73.5435 17.1763 68.1815 17.1763C62.6208 17.1763 58.9472 19.8561 58.9472 24.0277C58.9472 27.3046 61.5288 29.1917 64.6069 30.0849C66.0964 30.3835 68.579 30.9782 69.7701 31.3757C70.9619 31.6743 72.1529 32.071 72.1529 33.1638C72.1529 34.9503 70.3656 35.4469 68.2805 35.4469C66.3934 35.4469 64.5071 34.6526 64.0106 33.2628C63.7129 32.4685 63.1166 32.3695 62.3223 32.3695H59.542C59.0454 32.3695 58.4499 32.8653 58.4499 33.4608V33.8583C58.4499 36.9372 62.6208 40.1143 68.3795 40.1143C72.3517 40.1143 78.0121 38.4267 78.0121 33.0633C78.0121 29.8854 75.9263 27.7021 72.4514 26.8088C71.1599 26.5103 67.9828 25.6171 67.2875 25.5165C65.9959 25.119 64.8049 24.7222 64.8049 23.73C64.8049 22.0424 66.2944 21.5444 68.1808 21.5444Z" fill="#005695"/>
</g>
</svg>
